# This file was created with Minddesk Qubicle 2.0
# Get Qubicle at www.minddesk.com

mtllib flower1.mtl

vn 0.0 0.0 1.0
vn 0.0 0.0 -1.0
vn -1.0 0.0 0.0
vn 1.0 0.0 0.0
vn 0.0 1.0 0.0
vn 0.0 -1.0 0.0

v 62.50000 5.50000 5.50000
v 62.50000 2.50000 5.50000
v 61.50000 2.50000 5.50000
v 61.50000 5.50000 5.50000
v 63.50000 6.50000 4.50000
v 63.50000 3.50000 4.50000
v 62.50000 3.50000 4.50000
v 62.50000 6.50000 4.50000
v 58.50000 8.50000 4.50000
v 58.50000 6.50000 4.50000
v 57.50000 6.50000 4.50000
v 57.50000 8.50000 4.50000
v 60.50000 8.50000 3.50000
v 60.50000 6.50000 3.50000
v 59.50000 6.50000 3.50000
v 59.50000 8.50000 3.50000
v 60.50000 9.50000 4.50000
v 60.50000 8.50000 4.50000
v 56.50000 8.50000 4.50000
v 56.50000 9.50000 4.50000
v 62.50000 7.50000 4.50000
v 60.50000 6.50000 4.50000
v 60.50000 7.50000 4.50000
v 56.50000 6.50000 4.50000
v 56.50000 5.50000 4.50000
v 55.50000 5.50000 4.50000
v 55.50000 6.50000 4.50000
v 56.50000 7.50000 3.50000
v 56.50000 6.50000 3.50000
v 55.50000 6.50000 3.50000
v 55.50000 7.50000 3.50000
v 56.50000 7.50000 4.50000
v 55.50000 7.50000 4.50000
v 55.50000 8.50000 4.50000
v 61.50000 6.50000 5.50000
v 60.50000 5.50000 5.50000
v 60.50000 6.50000 5.50000
v 61.50000 8.50000 4.50000
v 61.50000 7.50000 4.50000
v 63.50000 1.50000 4.50000
v 63.50000 0.50000 4.50000
v 62.50000 0.50000 4.50000
v 62.50000 1.50000 4.50000
v 63.50000 2.50000 3.50000
v 63.50000 1.50000 3.50000
v 62.50000 1.50000 3.50000
v 62.50000 2.50000 3.50000
v 63.50000 3.50000 2.50000
v 63.50000 2.50000 2.50000
v 62.50000 2.50000 2.50000
v 62.50000 3.50000 2.50000
v 55.50000 8.50000 5.50000
v 55.50000 5.50000 5.50000
v 56.50000 5.50000 5.50000
v 56.50000 8.50000 5.50000
v 62.50000 6.50000 5.50000
v 62.50000 3.50000 5.50000
v 63.50000 3.50000 5.50000
v 63.50000 6.50000 5.50000
v 60.50000 7.50000 6.50000
v 60.50000 5.50000 6.50000
v 61.50000 5.50000 6.50000
v 61.50000 7.50000 6.50000
v 56.50000 9.50000 5.50000
v 60.50000 8.50000 5.50000
v 60.50000 9.50000 5.50000
v 59.50000 8.50000 5.50000
v 59.50000 7.50000 5.50000
v 61.50000 7.50000 5.50000
v 61.50000 8.50000 5.50000
v 61.50000 3.50000 6.50000
v 61.50000 2.50000 6.50000
v 63.50000 2.50000 6.50000
v 63.50000 3.50000 6.50000
v 57.50000 7.50000 5.50000
v 57.50000 6.50000 5.50000
v 58.50000 6.50000 5.50000
v 58.50000 7.50000 5.50000
v 57.50000 8.50000 6.50000
v 57.50000 7.50000 6.50000
v 58.50000 7.50000 6.50000
v 58.50000 8.50000 6.50000
v 59.50000 7.50000 4.50000
v 59.50000 6.50000 4.50000
v 61.50000 4.50000 6.50000
v 62.50000 3.50000 6.50000
v 62.50000 4.50000 6.50000
v 61.50000 5.50000 7.50000
v 61.50000 4.50000 7.50000
v 62.50000 4.50000 7.50000
v 62.50000 5.50000 7.50000
v 62.50000 7.50000 5.50000
v 62.50000 1.50000 5.50000
v 62.50000 0.50000 5.50000
v 63.50000 0.50000 5.50000
v 63.50000 1.50000 5.50000
v 62.50000 2.50000 6.50000
v 62.50000 1.50000 6.50000
v 63.50000 1.50000 6.50000
v 61.50000 4.50000 5.50000
v 55.50000 6.50000 5.50000
v 55.50000 7.50000 5.50000
v 57.50000 7.50000 4.50000
v 59.50000 7.50000 3.50000
v 60.50000 6.50000 6.50000
v 56.50000 7.50000 5.50000
v 56.50000 6.50000 5.50000
v 58.50000 7.50000 4.50000
v 62.50000 4.50000 5.50000
v 57.50000 8.50000 5.50000
v 58.50000 8.50000 5.50000
v 59.50000 8.50000 4.50000
v 60.50000 7.50000 5.50000

vt 0.01563 0.12500
vt 0.01563 0.03125
vt 0.03125 0.03125
vt 0.03125 0.12500
vt 0.06250 0.12500
vt 0.06250 0.03125
vt 0.07813 0.03125
vt 0.07813 0.12500
vt 0.10938 0.12500
vt 0.10938 0.03125
vt 0.12500 0.03125
vt 0.12500 0.12500
vt 0.15625 0.12500
vt 0.15625 0.03125
vt 0.17188 0.03125
vt 0.17188 0.12500
vt 0.20313 0.12500
vt 0.20313 0.03125
vt 0.21875 0.03125
vt 0.21875 0.12500
vt 0.25000 0.12500
vt 0.25000 0.03125
vt 0.26563 0.03125
vt 0.26563 0.12500
vt 0.29688 0.09375
vt 0.29688 0.03125
vt 0.31250 0.03125
vt 0.31250 0.09375
vt 0.34375 0.09375
vt 0.34375 0.03125
vt 0.35938 0.03125
vt 0.35938 0.09375
vt 0.39063 0.09375
vt 0.39063 0.03125
vt 0.40625 0.03125
vt 0.40625 0.09375
vt 0.43750 0.09375
vt 0.43750 0.03125
vt 0.45313 0.03125
vt 0.45313 0.09375
vt 0.48438 0.09375
vt 0.48438 0.03125
vt 0.50000 0.03125
vt 0.50000 0.09375
vt 0.53125 0.09375
vt 0.53125 0.03125
vt 0.54688 0.03125
vt 0.54688 0.09375
vt 0.57813 0.09375
vt 0.57813 0.03125
vt 0.59375 0.03125
vt 0.59375 0.09375
vt 0.62500 0.09375
vt 0.62500 0.03125
vt 0.64063 0.03125
vt 0.64063 0.09375
vt 0.67188 0.06250
vt 0.67188 0.03125
vt 0.73438 0.03125
vt 0.73438 0.06250
vt 0.76563 0.06250
vt 0.76563 0.03125
vt 0.82813 0.03125
vt 0.82813 0.06250
vt 0.85938 0.06250
vt 0.85938 0.03125
vt 0.92188 0.03125
vt 0.92188 0.06250
vt 0.01563 0.21875
vt 0.01563 0.18750
vt 0.07813 0.18750
vt 0.07813 0.21875
vt 0.10938 0.21875
vt 0.10938 0.18750
vt 0.15625 0.18750
vt 0.15625 0.21875
vt 0.18750 0.21875
vt 0.18750 0.18750
vt 0.23438 0.18750
vt 0.23438 0.21875
vt 0.26563 0.21875
vt 0.26563 0.18750
vt 0.31250 0.18750
vt 0.31250 0.21875
vt 0.95313 0.06250
vt 0.95313 0.03125
vt 0.98438 0.03125
vt 0.98438 0.06250
vt 0.34375 0.21875
vt 0.34375 0.18750
vt 0.37500 0.18750
vt 0.37500 0.21875
vt 0.40625 0.21875
vt 0.40625 0.18750
vt 0.43750 0.18750
vt 0.43750 0.21875
vt 0.46875 0.21875
vt 0.46875 0.18750
vt 0.50000 0.18750
vt 0.50000 0.21875
vt 0.53125 0.21875
vt 0.53125 0.18750
vt 0.56250 0.18750
vt 0.56250 0.21875
vt 0.59375 0.21875
vt 0.59375 0.18750
vt 0.62500 0.18750
vt 0.62500 0.21875
vt 0.65625 0.21875
vt 0.65625 0.18750
vt 0.68750 0.18750
vt 0.68750 0.21875
vt 0.71875 0.21875
vt 0.71875 0.18750
vt 0.75000 0.18750
vt 0.75000 0.21875
vt 0.78125 0.21875
vt 0.78125 0.18750
vt 0.81250 0.18750
vt 0.81250 0.21875
vt 0.84375 0.21875
vt 0.84375 0.18750
vt 0.87500 0.18750
vt 0.87500 0.21875
vt 0.90625 0.21875
vt 0.90625 0.18750
vt 0.93750 0.18750
vt 0.93750 0.21875
vt 0.01563 0.31250
vt 0.01563 0.28125
vt 0.04688 0.28125
vt 0.04688 0.31250
vt 0.96875 0.21875
vt 0.96875 0.18750
vt 0.98438 0.18750
vt 0.98438 0.21875
vt 0.07813 0.31250
vt 0.07813 0.28125
vt 0.09375 0.28125
vt 0.09375 0.31250
vt 0.12500 0.31250
vt 0.12500 0.28125
vt 0.14063 0.28125
vt 0.14063 0.31250
vt 0.17188 0.31250
vt 0.17188 0.28125
vt 0.18750 0.28125
vt 0.18750 0.31250
vt 0.21875 0.31250
vt 0.21875 0.28125
vt 0.23438 0.28125
vt 0.23438 0.31250
vt 0.26563 0.31250
vt 0.26563 0.28125
vt 0.28125 0.28125
vt 0.28125 0.31250
vt 0.31250 0.31250
vt 0.31250 0.28125
vt 0.32813 0.28125
vt 0.32813 0.31250
vt 0.35938 0.31250
vt 0.35938 0.28125
vt 0.37500 0.28125
vt 0.37500 0.31250
vt 0.40625 0.31250
vt 0.40625 0.28125
vt 0.42188 0.28125
vt 0.42188 0.31250
vt 0.45313 0.31250
vt 0.45313 0.28125
vt 0.46875 0.28125
vt 0.46875 0.31250
vt 0.50000 0.31250
vt 0.50000 0.28125
vt 0.51563 0.28125
vt 0.51563 0.31250
vt 0.54688 0.31250
vt 0.54688 0.28125
vt 0.56250 0.28125
vt 0.56250 0.31250
vt 0.59375 0.31250
vt 0.59375 0.28125
vt 0.60938 0.28125
vt 0.60938 0.31250
vt 0.64063 0.31250
vt 0.64063 0.28125
vt 0.65625 0.28125
vt 0.65625 0.31250
vt 0.68750 0.31250
vt 0.68750 0.28125
vt 0.70313 0.28125
vt 0.70313 0.31250
vt 0.73438 0.31250
vt 0.73438 0.28125
vt 0.75000 0.28125
vt 0.75000 0.31250
vt 0.78125 0.31250
vt 0.78125 0.28125
vt 0.79688 0.28125
vt 0.79688 0.31250
vt 0.82813 0.31250
vt 0.82813 0.28125
vt 0.84375 0.28125
vt 0.84375 0.31250
vt 0.87500 0.31250
vt 0.87500 0.28125
vt 0.89063 0.28125
vt 0.89063 0.31250
vt 0.92188 0.31250
vt 0.92188 0.28125
vt 0.93750 0.28125
vt 0.93750 0.31250
vt 0.96875 0.31250
vt 0.96875 0.28125
vt 0.98438 0.28125
vt 0.98438 0.31250
vt 0.01563 0.40625
vt 0.01563 0.37500
vt 0.03125 0.37500
vt 0.03125 0.40625
vt 0.06250 0.40625
vt 0.06250 0.37500
vt 0.07813 0.37500
vt 0.07813 0.40625
vt 0.10938 0.40625
vt 0.10938 0.37500
vt 0.12500 0.37500
vt 0.12500 0.40625
vt 0.15625 0.40625
vt 0.15625 0.37500
vt 0.17188 0.37500
vt 0.17188 0.40625
vt 0.20313 0.40625
vt 0.20313 0.37500
vt 0.21875 0.37500
vt 0.21875 0.40625
vt 0.25000 0.40625
vt 0.25000 0.37500
vt 0.26563 0.37500
vt 0.26563 0.40625
vt 0.29688 0.40625
vt 0.29688 0.37500
vt 0.31250 0.37500
vt 0.31250 0.40625
vt 0.34375 0.40625
vt 0.34375 0.37500
vt 0.35938 0.37500
vt 0.35938 0.40625
vt 0.39063 0.40625
vt 0.39063 0.37500
vt 0.40625 0.37500
vt 0.40625 0.40625
vt 0.43750 0.40625
vt 0.43750 0.37500
vt 0.45313 0.37500
vt 0.45313 0.40625
vt 0.48438 0.40625
vt 0.48438 0.37500
vt 0.50000 0.37500
vt 0.50000 0.40625
vt 0.53125 0.40625
vt 0.53125 0.37500
vt 0.54688 0.37500
vt 0.54688 0.40625
vt 0.57813 0.40625
vt 0.57813 0.37500
vt 0.59375 0.37500
vt 0.59375 0.40625
vt 0.62500 0.40625
vt 0.62500 0.37500
vt 0.64063 0.37500
vt 0.64063 0.40625
vt 0.67188 0.40625
vt 0.67188 0.37500
vt 0.68750 0.37500
vt 0.68750 0.40625
vt 0.71875 0.40625
vt 0.71875 0.37500
vt 0.73438 0.37500
vt 0.73438 0.40625
vt 0.76563 0.40625
vt 0.76563 0.37500
vt 0.78125 0.37500
vt 0.78125 0.40625
vt 0.81250 0.40625
vt 0.81250 0.37500
vt 0.82813 0.37500
vt 0.82813 0.40625
vt 0.85938 0.40625
vt 0.85938 0.37500
vt 0.87500 0.37500
vt 0.87500 0.40625
vt 0.90625 0.40625
vt 0.90625 0.37500
vt 0.92188 0.37500
vt 0.92188 0.40625
vt 0.95313 0.40625
vt 0.95313 0.37500
vt 0.96875 0.37500
vt 0.96875 0.40625
vt 0.01563 0.50000
vt 0.01563 0.46875
vt 0.03125 0.46875
vt 0.03125 0.50000
vt 0.06250 0.50000
vt 0.06250 0.46875
vt 0.07813 0.46875
vt 0.07813 0.50000
vt 0.10938 0.50000
vt 0.10938 0.46875
vt 0.12500 0.46875
vt 0.12500 0.50000
vt 0.15625 0.50000
vt 0.15625 0.46875
vt 0.17188 0.46875
vt 0.17188 0.50000
vt 0.20313 0.50000
vt 0.20313 0.46875
vt 0.21875 0.46875
vt 0.21875 0.50000
vt 0.25000 0.50000
vt 0.25000 0.46875
vt 0.26563 0.46875
vt 0.26563 0.50000
vt 0.29688 0.50000
vt 0.29688 0.46875
vt 0.31250 0.46875
vt 0.31250 0.50000
vt 0.34375 0.50000
vt 0.34375 0.46875
vt 0.35938 0.46875
vt 0.35938 0.50000
vt 0.39063 0.50000
vt 0.39063 0.46875
vt 0.40625 0.46875
vt 0.40625 0.50000
vt 0.43750 0.50000
vt 0.43750 0.46875
vt 0.45313 0.46875
vt 0.45313 0.50000
vt 0.48438 0.50000
vt 0.48438 0.46875
vt 0.50000 0.46875
vt 0.50000 0.50000
vt 0.53125 0.50000
vt 0.53125 0.46875
vt 0.54688 0.46875
vt 0.54688 0.50000
vt 0.57813 0.50000
vt 0.57813 0.46875
vt 0.59375 0.46875
vt 0.59375 0.50000

g Matrix
usemtl flower1_Material
f 1/21/2 2/22/2 3/23/2 4/24/2
f 5/13/2 6/14/2 7/15/2 8/16/2
f 9/53/2 10/54/2 11/55/2 12/56/2
f 13/37/2 14/38/2 15/39/2 16/40/2
f 17/69/2 18/70/2 19/71/2 20/72/2
f 21/85/2 8/86/2 22/87/2 23/88/2
f 24/141/2 25/142/2 26/143/2 27/144/2
f 28/137/2 29/138/2 30/139/2 31/140/2
f 19/181/2 32/182/2 33/183/2 34/184/2
f 35/177/2 4/178/2 36/179/2 37/180/2
f 38/189/2 39/190/2 23/191/2 18/192/2
f 40/153/2 41/154/2 42/155/2 43/156/2
f 44/149/2 45/150/2 46/151/2 47/152/2
f 48/161/2 49/162/2 50/163/2 51/164/2
f 52/5/1 53/6/1 54/7/1 55/8/1
f 56/17/1 57/18/1 58/19/1 59/20/1
f 60/29/1 61/30/1 62/31/1 63/32/1
f 64/65/1 55/66/1 65/67/1 66/68/1
f 67/113/1 68/114/1 69/115/1 70/116/1
f 71/117/1 72/118/1 73/119/1 74/120/1
f 75/165/1 76/166/1 77/167/1 78/168/1
f 79/169/1 80/170/1 81/171/1 82/172/1
f 83/157/1 84/158/1 22/159/1 23/160/1
f 85/145/1 71/146/1 86/147/1 87/148/1
f 88/193/1 89/194/1 90/195/1 91/196/1
f 69/197/1 35/198/1 56/199/1 92/200/1
f 93/185/1 94/186/1 95/187/1 96/188/1
f 97/173/1 98/174/1 99/175/1 73/176/1
f 8/9/3 7/10/3 57/11/3 56/12/3
f 100/49/3 3/50/3 72/51/3 85/52/3
f 47/77/3 46/78/3 98/79/3 97/80/3
f 51/81/3 50/82/3 2/83/3 57/84/3
f 31/125/3 30/126/3 101/127/3 102/128/3
f 12/121/3 103/122/3 80/123/3 79/124/3
f 16/129/3 104/130/3 68/131/3 67/132/3
f 23/109/3 22/110/3 105/111/3 60/112/3
f 4/105/3 100/106/3 89/107/3 88/108/3
f 27/133/3 26/134/3 53/135/3 101/136/3
f 34/301/3 33/302/3 102/303/3 52/304/3
f 20/297/3 19/298/3 55/299/3 64/300/3
f 103/309/3 11/310/3 76/311/3 75/312/3
f 104/305/3 15/306/3 84/307/3 83/308/3
f 37/293/3 36/294/3 61/295/3 105/296/3
f 43/281/3 42/282/3 94/283/3 93/284/3
f 59/1/4 58/2/4 6/3/4 5/4/4
f 18/41/4 22/42/4 14/43/4 13/44/4
f 63/45/4 62/46/4 4/47/4 69/48/4
f 73/73/4 99/74/4 45/75/4 44/76/4
f 74/57/4 73/58/4 49/59/4 48/60/4
f 106/101/4 107/102/4 29/103/4 28/104/4
f 82/97/4 81/98/4 108/99/4 9/100/4
f 91/93/4 90/94/4 109/95/4 1/96/4
f 107/277/4 54/278/4 25/279/4 24/280/4
f 55/289/4 106/290/4 32/291/4 19/292/4
f 78/285/4 77/286/4 10/287/4 108/288/4
f 66/313/4 65/314/4 18/315/4 17/316/4
f 70/341/4 69/342/4 39/343/4 38/344/4
f 87/337/4 86/338/4 57/339/4 109/340/4
f 92/349/4 56/350/4 8/351/4 21/352/4
f 96/345/4 95/346/4 41/347/4 40/348/4
f 4/25/5 88/26/5 91/27/5 1/28/5
f 51/33/5 7/34/5 6/35/5 48/36/5
f 20/61/5 64/62/5 66/63/5 17/64/5
f 31/333/5 33/334/5 32/335/5 28/336/5
f 34/321/5 52/322/5 55/323/5 19/324/5
f 110/317/5 79/318/5 82/319/5 111/320/5
f 16/329/5 112/330/5 18/331/5 13/332/5
f 113/325/5 60/326/5 63/327/5 69/328/5
f 18/225/5 65/226/5 70/227/5 38/228/5
f 39/221/5 69/222/5 92/223/5 21/224/5
f 57/233/5 86/234/5 74/235/5 58/236/5
f 8/229/5 56/230/5 59/231/5 5/232/5
f 37/89/6 22/90/6 8/91/6 56/92/6
f 53/217/6 26/218/6 25/219/6 54/220/6
f 27/205/6 30/206/6 29/207/6 24/208/6
f 55/201/6 19/202/6 12/203/6 110/204/6
f 76/213/6 11/214/6 10/215/6 77/216/6
f 80/209/6 75/210/6 78/211/6 81/212/6
f 111/237/6 9/238/6 112/239/6 67/240/6
f 84/265/6 15/266/6 14/267/6 22/268/6
f 68/261/6 83/262/6 23/263/6 113/264/6
f 61/273/6 36/274/6 4/275/6 62/276/6
f 72/269/6 3/270/6 2/271/6 97/272/6
f 89/257/6 85/258/6 87/259/6 90/260/6
f 94/245/6 42/246/6 41/247/6 95/248/6
f 43/241/6 46/242/6 45/243/6 40/244/6
f 98/253/6 93/254/6 96/255/6 99/256/6
f 47/249/6 50/250/6 49/251/6 44/252/6
