# This file was created with Minddesk Qubicle 2.0
# Get Qubicle at www.minddesk.com

mtllib room3.mtl

vn 0.0 0.0 1.0
vn 0.0 0.0 -1.0
vn -1.0 0.0 0.0
vn 1.0 0.0 0.0
vn 0.0 1.0 0.0
vn 0.0 -1.0 0.0

v 19.50000 46.50000 -20.50000
v 19.50000 -0.50000 -20.50000
v -20.50000 -0.50000 -20.50000
v -20.50000 46.50000 -20.50000
v 18.50000 70.50000 -7.50000
v 18.50000 9.50000 -7.50000
v 17.50000 9.50000 -7.50000
v 17.50000 70.50000 -7.50000
v 18.50000 70.50000 8.50000
v 18.50000 9.50000 8.50000
v 17.50000 9.50000 8.50000
v 17.50000 70.50000 8.50000
v 19.50000 79.50000 -20.50000
v 19.50000 62.50000 -20.50000
v -20.50000 62.50000 -20.50000
v -20.50000 79.50000 -20.50000
v -5.50000 62.50000 -20.50000
v -5.50000 46.50000 -20.50000
v 6.50000 46.50000 -20.50000
v 6.50000 62.50000 -20.50000
v 18.50000 79.50000 19.50000
v 18.50000 1.50000 19.50000
v 19.50000 1.50000 19.50000
v 19.50000 79.50000 19.50000
v -20.50000 45.50000 -19.50000
v -20.50000 1.50000 -19.50000
v 18.50000 1.50000 -19.50000
v 18.50000 45.50000 -19.50000
v 17.50000 70.50000 7.50000
v 17.50000 9.50000 7.50000
v 18.50000 9.50000 7.50000
v 18.50000 70.50000 7.50000
v 17.50000 70.50000 9.50000
v 17.50000 9.50000 9.50000
v 18.50000 9.50000 9.50000
v 18.50000 70.50000 9.50000
v -20.50000 65.50000 -19.50000
v -6.50000 45.50000 -19.50000
v -6.50000 65.50000 -19.50000
v 7.50000 65.50000 -19.50000
v 7.50000 45.50000 -19.50000
v 18.50000 65.50000 -19.50000
v -20.50000 79.50000 -19.50000
v 18.50000 79.50000 -19.50000
v -6.50000 62.50000 -18.50000
v -6.50000 46.50000 -18.50000
v -5.50000 46.50000 -18.50000
v -5.50000 62.50000 -18.50000
v 6.50000 62.50000 -18.50000
v 6.50000 46.50000 -18.50000
v 7.50000 46.50000 -18.50000
v 7.50000 62.50000 -18.50000
v -6.50000 65.50000 -18.50000
v 7.50000 65.50000 -18.50000
v -20.50000 1.50000 19.50000
v -20.50000 -0.50000 19.50000
v 19.50000 -0.50000 19.50000
v -6.50000 45.50000 -18.50000
v 7.50000 45.50000 -18.50000
v -20.50000 1.50000 -20.50000
v 18.50000 70.50000 -19.50000
v 18.50000 9.50000 -19.50000
v 18.50000 9.50000 19.50000
v 18.50000 70.50000 19.50000
v 19.50000 79.50000 -19.50000

vt 0.00391 0.63281
vt 0.00391 0.00781
vt 0.16016 0.00781
vt 0.16016 0.63281
vt 0.16797 0.61719
vt 0.16797 0.00781
vt 0.17188 0.00781
vt 0.17188 0.61719
vt 0.17969 0.61719
vt 0.17969 0.00781
vt 0.18359 0.00781
vt 0.18359 0.61719
vt 0.19141 0.48438
vt 0.19141 0.00781
vt 0.25000 0.00781
vt 0.25000 0.48438
vt 0.25781 0.48438
vt 0.25781 0.00781
vt 0.30469 0.00781
vt 0.30469 0.48438
vt 0.31250 0.48438
vt 0.31250 0.00781
vt 0.35156 0.00781
vt 0.35156 0.48438
vt 0.35938 0.48438
vt 0.35938 0.00781
vt 0.36328 0.00781
vt 0.36328 0.48438
vt 0.37109 0.48438
vt 0.37109 0.00781
vt 0.37500 0.00781
vt 0.37500 0.48438
vt 0.38281 0.48438
vt 0.38281 0.00781
vt 0.38672 0.00781
vt 0.38672 0.48438
vt 0.39453 0.48438
vt 0.39453 0.00781
vt 0.39844 0.00781
vt 0.39844 0.48438
vt 0.40625 0.48438
vt 0.40625 0.00781
vt 0.41016 0.00781
vt 0.41016 0.48438
vt 0.41797 0.48438
vt 0.41797 0.00781
vt 0.42188 0.00781
vt 0.42188 0.48438
vt 0.42969 0.37500
vt 0.42969 0.00781
vt 0.58594 0.00781
vt 0.58594 0.37500
vt 0.59375 0.35156
vt 0.59375 0.00781
vt 0.74609 0.00781
vt 0.74609 0.35156
vt 0.75391 0.32031
vt 0.75391 0.00781
vt 0.91016 0.00781
vt 0.91016 0.32031
vt 0.00391 0.95313
vt 0.00391 0.64844
vt 0.15625 0.64844
vt 0.15625 0.95313
vt 0.91797 0.31250
vt 0.91797 0.00781
vt 0.92188 0.00781
vt 0.92188 0.31250
vt 0.92969 0.16406
vt 0.92969 0.00781
vt 0.98438 0.00781
vt 0.98438 0.16406
vt 0.16406 0.80469
vt 0.16406 0.64844
vt 0.20703 0.64844
vt 0.20703 0.80469
vt 0.99219 0.16406
vt 0.99219 0.00781
vt 0.99609 0.00781
vt 0.99609 0.16406
vt 0.21484 0.80469
vt 0.21484 0.64844
vt 0.21875 0.64844
vt 0.21875 0.80469
vt 0.22656 0.78125
vt 0.22656 0.64844
vt 0.38281 0.64844
vt 0.38281 0.78125
vt 0.92969 0.30469
vt 0.92969 0.17969
vt 0.98828 0.17969
vt 0.98828 0.30469
vt 0.39063 0.77344
vt 0.39063 0.64844
vt 0.44141 0.64844
vt 0.44141 0.77344
vt 0.44922 0.77344
vt 0.44922 0.64844
vt 0.45703 0.64844
vt 0.45703 0.77344
vt 0.46484 0.77344
vt 0.46484 0.64844
vt 0.47266 0.64844
vt 0.47266 0.77344
vt 0.48047 0.77344
vt 0.48047 0.64844
vt 0.48438 0.64844
vt 0.48438 0.77344
vt 0.49219 0.77344
vt 0.49219 0.64844
vt 0.49609 0.64844
vt 0.49609 0.77344
vt 0.19141 0.61719
vt 0.19141 0.50000
vt 0.19531 0.50000
vt 0.19531 0.61719
vt 0.20313 0.61719
vt 0.20313 0.50000
vt 0.20703 0.50000
vt 0.20703 0.61719
vt 0.21484 0.60938
vt 0.21484 0.50000
vt 0.36719 0.50000
vt 0.36719 0.60938
vt 0.42969 0.46094
vt 0.42969 0.39063
vt 0.58203 0.39063
vt 0.58203 0.46094
vt 0.58984 0.45313
vt 0.58984 0.39063
vt 0.74219 0.39063
vt 0.74219 0.45313
vt 0.75000 0.41406
vt 0.75000 0.39063
vt 0.80469 0.39063
vt 0.80469 0.41406
vt 0.75391 0.35156
vt 0.75391 0.33594
vt 0.91016 0.33594
vt 0.91016 0.35156
vt 0.81250 0.40625
vt 0.81250 0.39063
vt 0.96875 0.39063
vt 0.96875 0.40625
vt 0.91797 0.35156
vt 0.91797 0.33594
vt 0.96484 0.33594
vt 0.96484 0.35156
vt 0.75000 0.44531
vt 0.75000 0.42969
vt 0.79688 0.42969
vt 0.79688 0.44531
vt 0.59375 0.37500
vt 0.59375 0.36719
vt 0.75000 0.36719
vt 0.75000 0.37500
vt 0.75781 0.37500
vt 0.75781 0.36719
vt 0.81250 0.36719
vt 0.81250 0.37500
vt 0.82031 0.37500
vt 0.82031 0.36719
vt 0.87500 0.36719
vt 0.87500 0.37500
vt 0.88281 0.37500
vt 0.88281 0.36719
vt 0.93750 0.36719
vt 0.93750 0.37500
vt 0.97266 0.34375
vt 0.97266 0.33594
vt 0.97656 0.33594
vt 0.97656 0.34375
vt 0.98438 0.34375
vt 0.98438 0.33594
vt 0.98828 0.33594
vt 0.98828 0.34375
vt 0.52734 0.37500
vt 0.48047 0.37500
vt 0.32422 0.64844
vt 0.27734 0.64844
vt 0.17969 0.07031
vt 0.17969 0.54688
vt 0.64844 0.35156
vt 0.70313 0.35156
vt 0.74609 0.07031
vt 0.36719 0.53906
vt 0.26953 0.50000
vt 0.32422 0.50000
vt 0.75391 0.39063
vt 0.80078 0.39063
vt 0.96484 0.40625
vt 0.88672 0.37500
vt 0.93359 0.37500
vt 0.17188 0.35156
vt 0.17188 0.50781
vt 0.16797 0.35938
vt 0.16797 0.48438
vt 0.25781 0.44531
vt 0.21875 0.78125
vt 0.21875 0.65625
vt 0.47656 0.39063
vt 0.53906 0.39063
vt 0.53516 0.39063
vt 0.54297 0.39063
vt 0.63672 0.45313
vt 0.69922 0.45313
vt 0.69531 0.45313
vt 0.70313 0.45313
vt 0.75781 0.35156
vt 0.15625 0.63281
vt 0.16016 0.37500
vt 0.16016 0.50000
vt 0.00391 0.02344
vt 0.99219 0.01563
vt 0.99219 0.14063
vt 0.74609 0.36719

g Matrix_1
usemtl room3_Material
f 19/178/2 1/49/2 2/50/2
f 2/50/2 18/177/2 19/178/2
f 18/177/2 2/50/2 3/51/2
f 3/51/2 4/52/2 18/177/2
f 6/34/2 8/36/2 5/33/2
f 6/34/2 7/35/2 8/36/2
f 10/30/2 12/32/2 9/29/2
f 10/30/2 11/31/2 12/32/2
f 16/88/2 13/85/2 14/86/2
f 14/86/2 15/87/2 16/88/2
f 15/87/2 14/86/2 20/180/2
f 20/180/2 17/179/2 15/87/2
f 18/90/2 15/92/2 17/89/2
f 18/90/2 4/91/2 15/92/2
f 1/94/2 20/96/2 14/93/2
f 1/94/2 19/95/2 20/96/2
f 24/12/1 21/9/1 64/182/1
f 64/182/1 23/11/1 24/12/1
f 23/11/1 64/182/1 63/181/1
f 63/181/1 22/10/1 23/11/1
f 38/183/1 25/53/1 26/54/1
f 26/54/1 41/184/1 38/183/1
f 41/184/1 26/54/1 27/55/1
f 27/55/1 28/56/1 41/184/1
f 28/56/1 27/55/1 62/185/1
f 30/42/1 32/44/1 29/41/1
f 30/42/1 31/43/1 32/44/1
f 34/46/1 36/48/1 33/45/1
f 34/46/1 35/47/1 36/48/1
f 25/70/1 39/72/1 37/69/1
f 25/70/1 38/71/1 39/72/1
f 41/74/1 42/76/1 40/73/1
f 41/74/1 28/75/1 42/76/1
f 44/124/1 43/121/1 37/122/1
f 37/122/1 61/186/1 44/124/1
f 61/186/1 37/122/1 39/187/1
f 39/187/1 42/123/1 61/186/1
f 42/123/1 39/187/1 40/188/1
f 46/110/1 48/112/1 45/109/1
f 46/110/1 47/111/1 48/112/1
f 50/106/1 52/108/1 49/105/1
f 50/106/1 51/107/1 52/108/1
f 54/136/1 53/133/1 45/134/1
f 45/134/1 52/135/1 54/136/1
f 52/135/1 45/134/1 48/189/1
f 48/189/1 49/190/1 52/135/1
f 22/191/1 55/141/1 56/142/1
f 56/142/1 23/144/1 22/191/1
f 23/144/1 56/142/1 57/143/1
f 47/192/1 46/165/1 58/166/1
f 58/166/1 50/193/1 47/192/1
f 50/193/1 58/166/1 59/167/1
f 59/167/1 51/168/1 50/193/1
f 43/8/3 16/5/3 15/197/3
f 15/197/3 37/195/3 43/8/3
f 37/195/3 15/197/3 4/196/3
f 4/196/3 25/194/3 37/195/3
f 25/194/3 4/196/3 60/6/3
f 60/6/3 26/7/3 25/194/3
f 7/14/3 29/16/3 8/13/3
f 7/14/3 30/15/3 29/16/3
f 5/20/3 61/17/3 42/198/3
f 42/198/3 6/19/3 5/20/3
f 6/19/3 42/198/3 62/18/3
f 35/22/3 64/24/3 36/21/3
f 35/22/3 63/23/3 64/24/3
f 11/26/3 33/28/3 12/25/3
f 11/26/3 34/27/3 33/28/3
f 31/38/3 9/40/3 32/37/3
f 31/38/3 10/39/3 9/40/3
f 53/84/3 39/81/3 38/82/3
f 38/82/3 45/199/3 53/84/3
f 45/199/3 38/82/3 58/83/3
f 58/83/3 46/200/3 45/199/3
f 21/128/3 44/125/3 61/126/3
f 61/126/3 64/127/3 21/128/3
f 64/127/3 61/126/3 5/201/3
f 5/201/3 36/204/3 64/127/3
f 36/204/3 5/201/3 32/203/3
f 32/203/3 9/202/3 36/204/3
f 19/98/3 49/100/3 20/97/3
f 19/98/3 50/99/3 49/100/3
f 6/205/3 62/129/3 27/130/3
f 27/130/3 31/207/3 6/205/3
f 31/207/3 27/130/3 22/131/3
f 22/131/3 10/206/3 31/207/3
f 10/206/3 22/131/3 63/132/3
f 63/132/3 35/208/3 10/206/3
f 26/209/3 60/137/3 3/138/3
f 3/138/3 55/140/3 26/209/3
f 55/140/3 3/138/3 56/139/3
f 65/210/4 24/1/4 23/213/4
f 23/213/4 13/4/4 65/210/4
f 13/4/4 23/213/4 57/2/4
f 57/2/4 14/212/4 13/4/4
f 14/212/4 57/2/4 2/3/4
f 2/3/4 1/211/4 14/212/4
f 40/80/4 54/77/4 52/215/4
f 52/215/4 41/79/4 40/80/4
f 41/79/4 52/215/4 51/214/4
f 51/214/4 59/78/4 41/79/4
f 47/102/4 17/104/4 48/101/4
f 47/102/4 18/103/4 17/104/4
f 26/61/5 55/62/5 27/64/5
f 55/62/5 22/63/5 27/64/5
f 44/65/5 21/66/5 65/68/5
f 21/66/5 24/67/5 65/68/5
f 8/117/5 29/118/5 5/120/5
f 29/118/5 32/119/5 5/120/5
f 18/149/5 47/150/5 19/152/5
f 47/150/5 50/151/5 19/152/5
f 13/156/5 16/153/5 43/154/5
f 43/154/5 44/216/5 13/156/5
f 65/155/5 13/156/5 44/216/5
f 39/161/5 53/162/5 40/164/5
f 53/162/5 54/163/5 40/164/5
f 12/173/5 33/174/5 9/176/5
f 33/174/5 36/175/5 9/176/5
f 56/57/6 3/58/6 57/60/6
f 3/58/6 2/59/6 57/60/6
f 30/113/6 7/114/6 31/116/6
f 7/114/6 6/115/6 31/116/6
f 48/145/6 17/146/6 49/148/6
f 17/146/6 20/147/6 49/148/6
f 58/157/6 38/158/6 59/160/6
f 38/158/6 41/159/6 59/160/6
f 34/169/6 11/170/6 35/172/6
f 11/170/6 10/171/6 35/172/6
