# This file was created with Minddesk Qubicle 2.0
# Get Qubicle at www.minddesk.com

mtllib exitButton.mtl

vn 0.0 0.0 1.0
vn 0.0 0.0 -1.0
vn -1.0 0.0 0.0
vn 1.0 0.0 0.0
vn 0.0 1.0 0.0
vn 0.0 -1.0 0.0

v -8.50000 0.50000 -6.50000
v -8.50000 -0.50000 -6.50000
v -15.50000 -0.50000 -6.50000
v -15.50000 0.50000 -6.50000
v 7.50000 0.50000 -6.50000
v 7.50000 -0.50000 -6.50000
v 0.50000 -0.50000 -6.50000
v 0.50000 0.50000 -6.50000
v 15.50000 0.50000 -6.50000
v 15.50000 -0.50000 -6.50000
v 8.50000 -0.50000 -6.50000
v 8.50000 0.50000 -6.50000
v -8.50000 0.50000 -1.50000
v -8.50000 -0.50000 -1.50000
v -11.50000 -0.50000 -1.50000
v -11.50000 0.50000 -1.50000
v -8.50000 0.50000 2.50000
v -8.50000 -0.50000 2.50000
v -11.50000 -0.50000 2.50000
v -11.50000 0.50000 2.50000
v -4.50000 0.50000 -6.50000
v -4.50000 -0.50000 -6.50000
v -7.50000 -0.50000 -6.50000
v -7.50000 0.50000 -6.50000
v -0.50000 0.50000 -6.50000
v -0.50000 -0.50000 -6.50000
v -3.50000 -0.50000 -6.50000
v -3.50000 0.50000 -6.50000
v 2.50000 0.50000 2.50000
v 2.50000 -0.50000 2.50000
v 0.50000 -0.50000 2.50000
v 0.50000 0.50000 2.50000
v 7.50000 0.50000 2.50000
v 7.50000 -0.50000 2.50000
v 5.50000 -0.50000 2.50000
v 5.50000 0.50000 2.50000
v -6.50000 0.50000 2.50000
v -6.50000 -0.50000 2.50000
v -7.50000 -0.50000 2.50000
v -7.50000 0.50000 2.50000
v -5.50000 0.50000 1.50000
v -5.50000 -0.50000 1.50000
v -6.50000 -0.50000 1.50000
v -6.50000 0.50000 1.50000
v -3.50000 0.50000 -3.50000
v -3.50000 -0.50000 -3.50000
v -4.50000 -0.50000 -3.50000
v -4.50000 0.50000 -3.50000
v -1.50000 0.50000 1.50000
v -1.50000 -0.50000 1.50000
v -2.50000 -0.50000 1.50000
v -2.50000 0.50000 1.50000
v -0.50000 0.50000 2.50000
v -0.50000 -0.50000 2.50000
v -1.50000 -0.50000 2.50000
v -1.50000 0.50000 2.50000
v -15.50000 0.50000 6.50000
v -15.50000 -0.50000 6.50000
v -8.50000 -0.50000 6.50000
v -8.50000 0.50000 6.50000
v 0.50000 0.50000 6.50000
v 0.50000 -0.50000 6.50000
v 7.50000 -0.50000 6.50000
v 7.50000 0.50000 6.50000
v -11.50000 0.50000 -2.50000
v -11.50000 -0.50000 -2.50000
v -8.50000 -0.50000 -2.50000
v -8.50000 0.50000 -2.50000
v -11.50000 0.50000 1.50000
v -11.50000 -0.50000 1.50000
v -8.50000 -0.50000 1.50000
v -8.50000 0.50000 1.50000
v -7.50000 0.50000 6.50000
v -7.50000 -0.50000 6.50000
v -4.50000 -0.50000 6.50000
v -4.50000 0.50000 6.50000
v -3.50000 0.50000 6.50000
v -3.50000 -0.50000 6.50000
v -0.50000 -0.50000 6.50000
v -0.50000 0.50000 6.50000
v 10.50000 0.50000 6.50000
v 10.50000 -0.50000 6.50000
v 13.50000 -0.50000 6.50000
v 13.50000 0.50000 6.50000
v 0.50000 0.50000 -2.50000
v 0.50000 -0.50000 -2.50000
v 2.50000 -0.50000 -2.50000
v 2.50000 0.50000 -2.50000
v 5.50000 0.50000 -2.50000
v 5.50000 -0.50000 -2.50000
v 7.50000 -0.50000 -2.50000
v 7.50000 0.50000 -2.50000
v 8.50000 0.50000 -2.50000
v 8.50000 -0.50000 -2.50000
v 10.50000 -0.50000 -2.50000
v 10.50000 0.50000 -2.50000
v 13.50000 0.50000 -2.50000
v 13.50000 -0.50000 -2.50000
v 15.50000 -0.50000 -2.50000
v 15.50000 0.50000 -2.50000
v -7.50000 0.50000 -2.50000
v -7.50000 -0.50000 -2.50000
v -6.50000 -0.50000 -2.50000
v -6.50000 0.50000 -2.50000
v -6.50000 0.50000 -1.50000
v -6.50000 -0.50000 -1.50000
v -5.50000 -0.50000 -1.50000
v -5.50000 0.50000 -1.50000
v -4.50000 0.50000 3.50000
v -4.50000 -0.50000 3.50000
v -3.50000 -0.50000 3.50000
v -3.50000 0.50000 3.50000
v -2.50000 0.50000 -1.50000
v -2.50000 -0.50000 -1.50000
v -1.50000 -0.50000 -1.50000
v -1.50000 0.50000 -1.50000
v -1.50000 0.50000 -2.50000
v -1.50000 -0.50000 -2.50000
v -0.50000 -0.50000 -2.50000
v -0.50000 0.50000 -2.50000
v -15.50000 0.50000 -2.50000
v -15.50000 0.50000 -1.50000
v -15.50000 0.50000 1.50000
v -15.50000 0.50000 2.50000
v -7.50000 0.50000 -3.50000
v -7.50000 0.50000 3.50000
v -0.50000 0.50000 -3.50000
v -0.50000 0.50000 3.50000
v -15.50000 -0.50000 -2.50000
v -15.50000 -0.50000 1.50000
v -15.50000 -0.50000 -1.50000
v -15.50000 -0.50000 2.50000
v -7.50000 -0.50000 -3.50000
v -7.50000 -0.50000 3.50000
v -0.50000 -0.50000 -3.50000
v -0.50000 -0.50000 3.50000

vt 0.01563 0.15625
vt 0.01563 0.01563
vt 0.06250 0.01563
vt 0.06250 0.15625
vt 0.09375 0.15625
vt 0.09375 0.01563
vt 0.14063 0.01563
vt 0.14063 0.15625
vt 0.17188 0.09375
vt 0.17188 0.01563
vt 0.21875 0.01563
vt 0.21875 0.09375
vt 0.25000 0.09375
vt 0.25000 0.01563
vt 0.29688 0.01563
vt 0.29688 0.09375
vt 0.32813 0.07813
vt 0.32813 0.01563
vt 0.43750 0.01563
vt 0.43750 0.07813
vt 0.46875 0.07813
vt 0.46875 0.01563
vt 0.57813 0.01563
vt 0.57813 0.07813
vt 0.60938 0.07813
vt 0.60938 0.01563
vt 0.71875 0.01563
vt 0.71875 0.07813
vt 0.75000 0.07813
vt 0.75000 0.01563
vt 0.85938 0.01563
vt 0.85938 0.07813
vt 0.01563 0.25000
vt 0.01563 0.18750
vt 0.12500 0.18750
vt 0.12500 0.25000
vt 0.15625 0.25000
vt 0.15625 0.18750
vt 0.26563 0.18750
vt 0.26563 0.25000
vt 0.29688 0.25000
vt 0.29688 0.18750
vt 0.40625 0.18750
vt 0.40625 0.25000
vt 0.43750 0.25000
vt 0.43750 0.18750
vt 0.54688 0.18750
vt 0.54688 0.25000
vt 0.57813 0.25000
vt 0.57813 0.18750
vt 0.68750 0.18750
vt 0.68750 0.25000
vt 0.71875 0.25000
vt 0.71875 0.18750
vt 0.82813 0.18750
vt 0.82813 0.25000
vt 0.85938 0.23438
vt 0.85938 0.18750
vt 0.96875 0.18750
vt 0.96875 0.23438
vt 0.01563 0.32813
vt 0.01563 0.28125
vt 0.12500 0.28125
vt 0.12500 0.32813
vt 0.89063 0.06250
vt 0.89063 0.01563
vt 0.93750 0.01563
vt 0.93750 0.06250
vt 0.15625 0.32813
vt 0.15625 0.28125
vt 0.20313 0.28125
vt 0.20313 0.32813
vt 0.23438 0.32813
vt 0.23438 0.28125
vt 0.28125 0.28125
vt 0.28125 0.32813
vt 0.31250 0.32813
vt 0.31250 0.28125
vt 0.35938 0.28125
vt 0.35938 0.32813
vt 0.39063 0.32813
vt 0.39063 0.28125
vt 0.43750 0.28125
vt 0.43750 0.32813
vt 0.46875 0.32813
vt 0.46875 0.28125
vt 0.51563 0.28125
vt 0.51563 0.32813
vt 0.54688 0.32813
vt 0.54688 0.28125
vt 0.59375 0.28125
vt 0.59375 0.32813
vt 0.62500 0.32813
vt 0.62500 0.28125
vt 0.67188 0.28125
vt 0.67188 0.32813
vt 0.70313 0.32813
vt 0.70313 0.28125
vt 0.75000 0.28125
vt 0.75000 0.32813
vt 0.78125 0.32813
vt 0.78125 0.28125
vt 0.82813 0.28125
vt 0.82813 0.32813
vt 0.17188 0.14063
vt 0.17188 0.12500
vt 0.37500 0.12500
vt 0.37500 0.14063
vt 0.40625 0.14063
vt 0.40625 0.12500
vt 0.54688 0.12500
vt 0.54688 0.14063
vt 0.57813 0.14063
vt 0.57813 0.12500
vt 0.71875 0.12500
vt 0.71875 0.14063
vt 0.75000 0.14063
vt 0.75000 0.12500
vt 0.85938 0.12500
vt 0.85938 0.14063
vt 0.85938 0.29688
vt 0.85938 0.28125
vt 0.96875 0.28125
vt 0.96875 0.29688
vt 0.01563 0.37500
vt 0.01563 0.35938
vt 0.12500 0.35938
vt 0.12500 0.37500
vt 0.15625 0.37500
vt 0.15625 0.35938
vt 0.26563 0.35938
vt 0.26563 0.37500
vt 0.29688 0.37500
vt 0.29688 0.35938
vt 0.40625 0.35938
vt 0.40625 0.37500
vt 0.43750 0.37500
vt 0.43750 0.35938
vt 0.54688 0.35938
vt 0.54688 0.37500
vt 0.57813 0.37500
vt 0.57813 0.35938
vt 0.68750 0.35938
vt 0.68750 0.37500
vt 0.71875 0.37500
vt 0.71875 0.35938
vt 0.82813 0.35938
vt 0.82813 0.37500
vt 0.85938 0.37500
vt 0.85938 0.35938
vt 0.96875 0.35938
vt 0.96875 0.37500
vt 0.89063 0.14063
vt 0.89063 0.12500
vt 0.96875 0.12500
vt 0.96875 0.14063
vt 0.01563 0.42188
vt 0.01563 0.40625
vt 0.09375 0.40625
vt 0.09375 0.42188
vt 0.12500 0.42188
vt 0.12500 0.40625
vt 0.20313 0.40625
vt 0.20313 0.42188
vt 0.23438 0.42188
vt 0.23438 0.40625
vt 0.31250 0.40625
vt 0.31250 0.42188
vt 0.34375 0.42188
vt 0.34375 0.40625
vt 0.42188 0.40625
vt 0.42188 0.42188
vt 0.45313 0.42188
vt 0.45313 0.40625
vt 0.53125 0.40625
vt 0.53125 0.42188
vt 0.56250 0.42188
vt 0.56250 0.40625
vt 0.62500 0.40625
vt 0.62500 0.42188
vt 0.65625 0.42188
vt 0.65625 0.40625
vt 0.71875 0.40625
vt 0.71875 0.42188
vt 0.75000 0.42188
vt 0.75000 0.40625
vt 0.81250 0.40625
vt 0.81250 0.42188
vt 0.84375 0.42188
vt 0.84375 0.40625
vt 0.90625 0.40625
vt 0.90625 0.42188
vt 0.01563 0.46875
vt 0.01563 0.45313
vt 0.07813 0.45313
vt 0.07813 0.46875
vt 0.10938 0.46875
vt 0.10938 0.45313
vt 0.17188 0.45313
vt 0.17188 0.46875
vt 0.20313 0.46875
vt 0.20313 0.45313
vt 0.26563 0.45313
vt 0.26563 0.46875
vt 0.29688 0.46875
vt 0.29688 0.45313
vt 0.35938 0.45313
vt 0.35938 0.46875
vt 0.39063 0.46875
vt 0.39063 0.45313
vt 0.45313 0.45313
vt 0.45313 0.46875
vt 0.48438 0.46875
vt 0.48438 0.45313
vt 0.54688 0.45313
vt 0.54688 0.46875
vt 0.57813 0.46875
vt 0.57813 0.45313
vt 0.64063 0.45313
vt 0.64063 0.46875
vt 0.67188 0.46875
vt 0.67188 0.45313
vt 0.73438 0.45313
vt 0.73438 0.46875
vt 0.76563 0.46875
vt 0.76563 0.45313
vt 0.82813 0.45313
vt 0.82813 0.46875
vt 0.85938 0.46875
vt 0.85938 0.45313
vt 0.92188 0.45313
vt 0.92188 0.46875
vt 0.01563 0.51563
vt 0.01563 0.50000
vt 0.07813 0.50000
vt 0.07813 0.51563
vt 0.10938 0.51563
vt 0.10938 0.50000
vt 0.17188 0.50000
vt 0.17188 0.51563
vt 0.93750 0.42188
vt 0.93750 0.40625
vt 0.98438 0.40625
vt 0.98438 0.42188
vt 0.20313 0.51563
vt 0.20313 0.50000
vt 0.25000 0.50000
vt 0.25000 0.51563
vt 0.28125 0.51563
vt 0.28125 0.50000
vt 0.32813 0.50000
vt 0.32813 0.51563
vt 0.35938 0.51563
vt 0.35938 0.50000
vt 0.40625 0.50000
vt 0.40625 0.51563
vt 0.43750 0.51563
vt 0.43750 0.50000
vt 0.48438 0.50000
vt 0.48438 0.51563
vt 0.51563 0.51563
vt 0.51563 0.50000
vt 0.56250 0.50000
vt 0.56250 0.51563
vt 0.59375 0.51563
vt 0.59375 0.50000
vt 0.64063 0.50000
vt 0.64063 0.51563
vt 0.67188 0.51563
vt 0.67188 0.50000
vt 0.71875 0.50000
vt 0.71875 0.51563
vt 0.75000 0.51563
vt 0.75000 0.50000
vt 0.79688 0.50000
vt 0.79688 0.51563
vt 0.82813 0.51563
vt 0.82813 0.50000
vt 0.87500 0.50000
vt 0.87500 0.51563
vt 0.90625 0.51563
vt 0.90625 0.50000
vt 0.95313 0.50000
vt 0.95313 0.51563
vt 0.01563 0.56250
vt 0.01563 0.54688
vt 0.06250 0.54688
vt 0.06250 0.56250
vt 0.09375 0.56250
vt 0.09375 0.54688
vt 0.14063 0.54688
vt 0.14063 0.56250
vt 0.17188 0.56250
vt 0.17188 0.54688
vt 0.21875 0.54688
vt 0.21875 0.56250
vt 0.25000 0.56250
vt 0.25000 0.54688
vt 0.29688 0.54688
vt 0.29688 0.56250
vt 0.32813 0.56250
vt 0.32813 0.54688
vt 0.37500 0.54688
vt 0.37500 0.56250
vt 0.95313 0.46875
vt 0.95313 0.45313
vt 0.98438 0.45313
vt 0.98438 0.46875
vt 0.40625 0.56250
vt 0.40625 0.54688
vt 0.43750 0.54688
vt 0.43750 0.56250
vt 0.46875 0.56250
vt 0.46875 0.54688
vt 0.50000 0.54688
vt 0.50000 0.56250
vt 0.53125 0.56250
vt 0.53125 0.54688
vt 0.56250 0.54688
vt 0.56250 0.56250
vt 0.59375 0.56250
vt 0.59375 0.54688
vt 0.62500 0.54688
vt 0.62500 0.56250
vt 0.65625 0.56250
vt 0.65625 0.54688
vt 0.68750 0.54688
vt 0.68750 0.56250
vt 0.96875 0.03125
vt 0.96875 0.01563
vt 0.98438 0.01563
vt 0.98438 0.03125
vt 0.71875 0.56250
vt 0.71875 0.54688
vt 0.73438 0.54688
vt 0.73438 0.56250
vt 0.76563 0.56250
vt 0.76563 0.54688
vt 0.78125 0.54688
vt 0.78125 0.56250
vt 0.81250 0.56250
vt 0.81250 0.54688
vt 0.82813 0.54688
vt 0.82813 0.56250
vt 0.85938 0.56250
vt 0.85938 0.54688
vt 0.87500 0.54688
vt 0.87500 0.56250
vt 0.90625 0.56250
vt 0.90625 0.54688
vt 0.92188 0.54688
vt 0.92188 0.56250
vt 0.95313 0.56250
vt 0.95313 0.54688
vt 0.96875 0.54688
vt 0.96875 0.56250
vt 0.01563 0.60938
vt 0.01563 0.59375
vt 0.03125 0.59375
vt 0.03125 0.60938
vt 0.06250 0.60938
vt 0.06250 0.59375
vt 0.07813 0.59375
vt 0.07813 0.60938
vt 0.10938 0.60938
vt 0.10938 0.59375
vt 0.12500 0.59375
vt 0.12500 0.60938
vt 0.15625 0.60938
vt 0.15625 0.59375
vt 0.17188 0.59375
vt 0.17188 0.60938
vt 0.20313 0.60938
vt 0.20313 0.59375
vt 0.21875 0.59375
vt 0.21875 0.60938
vt 0.25000 0.60938
vt 0.25000 0.59375
vt 0.26563 0.59375
vt 0.26563 0.60938
vt 0.29688 0.60938
vt 0.29688 0.59375
vt 0.31250 0.59375
vt 0.31250 0.60938
vt 0.34375 0.60938
vt 0.34375 0.59375
vt 0.35938 0.59375
vt 0.35938 0.60938
vt 0.39063 0.60938
vt 0.39063 0.59375
vt 0.40625 0.59375
vt 0.40625 0.60938
vt 0.23438 0.14063
vt 0.25000 0.14063
vt 0.29688 0.14063
vt 0.31250 0.14063
vt 0.23438 0.12500
vt 0.29688 0.12500
vt 0.25000 0.12500
vt 0.31250 0.12500
vt 0.79688 0.42188
vt 0.79688 0.40625
vt 0.67188 0.42188
vt 0.67188 0.40625
vt 0.12500 0.51563
vt 0.12500 0.50000
vt 0.06250 0.51563
vt 0.06250 0.50000
vt 0.35938 0.18750
vt 0.92188 0.18750
vt 0.92188 0.23438
vt 0.21875 0.25000
vt 0.46875 0.18750
vt 0.51563 0.18750
vt 0.75000 0.25000
vt 0.79688 0.25000
vt 0.60938 0.18750
vt 0.65625 0.18750
vt 0.87500 0.35938
vt 0.95313 0.35938
vt 0.92188 0.37500
vt 0.90625 0.37500
vt 0.76563 0.35938
vt 0.78125 0.35938
vt 0.73438 0.37500
vt 0.81250 0.37500
vt 0.14063 0.40625
vt 0.18750 0.40625
vt 0.25000 0.42188
vt 0.29688 0.42188
vt 0.39063 0.07813
vt 0.07813 0.28125
vt 0.07813 0.32813
vt 0.67188 0.01563
vt 0.78125 0.07813
vt 0.82813 0.07813
vt 0.04688 0.18750
vt 0.09375 0.18750
vt 0.50000 0.07813
vt 0.54688 0.07813
vt 0.50000 0.35938
vt 0.48438 0.35938
vt 0.45313 0.37500
vt 0.53125 0.37500
vt 0.59375 0.35938
vt 0.67188 0.35938
vt 0.62500 0.37500
vt 0.64063 0.37500
vt 0.90625 0.14063
vt 0.95313 0.14063
vt 0.46875 0.40625
vt 0.51563 0.40625

g Matrix_1
usemtl exitButton_Material
f 2/122/2 4/124/2 1/121/2
f 2/122/2 3/123/2 4/124/2
f 6/118/2 8/120/2 5/117/2
f 6/118/2 7/119/2 8/120/2
f 10/134/2 12/136/2 9/133/2
f 10/134/2 11/135/2 12/136/2
f 14/242/2 16/244/2 13/241/2
f 14/242/2 15/243/2 16/244/2
f 18/254/2 20/256/2 17/253/2
f 18/254/2 19/255/2 20/256/2
f 22/258/2 24/260/2 21/257/2
f 22/258/2 23/259/2 24/260/2
f 26/262/2 28/264/2 25/261/2
f 26/262/2 27/263/2 28/264/2
f 30/314/2 32/316/2 29/313/2
f 30/314/2 31/315/2 32/316/2
f 34/322/2 36/324/2 33/321/2
f 34/322/2 35/323/2 36/324/2
f 38/382/2 40/384/2 37/381/2
f 38/382/2 39/383/2 40/384/2
f 42/378/2 44/380/2 41/377/2
f 42/378/2 43/379/2 44/380/2
f 46/390/2 48/392/2 45/389/2
f 46/390/2 47/391/2 48/392/2
f 50/386/2 52/388/2 49/385/2
f 50/386/2 51/387/2 52/388/2
f 54/374/2 56/376/2 53/373/2
f 54/374/2 55/375/2 56/376/2
f 58/130/1 60/132/1 57/129/1
f 58/130/1 59/131/1 60/132/1
f 62/126/1 64/128/1 61/125/1
f 62/126/1 63/127/1 64/128/1
f 66/274/1 68/276/1 65/273/1
f 66/274/1 67/275/1 68/276/1
f 70/270/1 72/272/1 69/269/1
f 70/270/1 71/271/1 72/272/1
f 74/266/1 76/268/1 73/265/1
f 74/266/1 75/267/1 76/268/1
f 78/250/1 80/252/1 77/249/1
f 78/250/1 79/251/1 80/252/1
f 82/246/1 84/248/1 81/245/1
f 82/246/1 83/247/1 84/248/1
f 86/318/1 88/320/1 85/317/1
f 86/318/1 87/319/1 88/320/1
f 90/326/1 92/328/1 89/325/1
f 90/326/1 91/327/1 92/328/1
f 94/306/1 96/308/1 93/305/1
f 94/306/1 95/307/1 96/308/1
f 98/310/1 100/312/1 97/309/1
f 98/310/1 99/311/1 100/312/1
f 102/362/1 104/364/1 101/361/1
f 102/362/1 103/363/1 104/364/1
f 106/334/1 108/336/1 105/333/1
f 106/334/1 107/335/1 108/336/1
f 110/330/1 112/332/1 109/329/1
f 110/330/1 111/331/1 112/332/1
f 114/338/1 116/340/1 113/337/1
f 114/338/1 115/339/1 116/340/1
f 118/366/1 120/368/1 117/365/1
f 118/366/1 119/367/1 120/368/1
f 121/393/3 4/105/3 3/106/3
f 3/106/3 122/394/3 121/393/3
f 122/394/3 3/106/3 129/397/3
f 129/397/3 123/395/3 122/394/3
f 123/395/3 129/397/3 131/399/3
f 131/399/3 124/396/3 123/395/3
f 124/396/3 131/399/3 130/398/3
f 130/398/3 57/108/3 124/396/3
f 57/108/3 130/398/3 132/400/3
f 132/400/3 58/107/3 57/108/3
f 95/114/3 81/116/3 96/113/3
f 95/114/3 82/115/3 81/116/3
f 87/170/3 29/172/3 88/169/3
f 87/170/3 30/171/3 29/172/3
f 125/401/3 24/185/3 23/186/3
f 23/186/3 101/188/3 125/401/3
f 101/188/3 23/186/3 133/402/3
f 133/402/3 102/187/3 101/188/3
f 126/403/3 40/181/3 39/182/3
f 39/182/3 73/184/3 126/403/3
f 73/184/3 39/182/3 134/404/3
f 134/404/3 74/183/3 73/184/3
f 107/286/3 41/288/3 108/285/3
f 107/286/3 42/287/3 41/288/3
f 27/282/3 45/284/3 28/281/3
f 27/282/3 46/283/3 45/284/3
f 111/278/3 77/280/3 112/277/3
f 111/278/3 78/279/3 77/280/3
f 7/190/3 85/192/3 8/189/3
f 7/190/3 86/191/3 85/192/3
f 31/198/3 61/200/3 32/197/3
f 31/198/3 62/199/3 61/200/3
f 11/194/3 93/196/3 12/193/3
f 11/194/3 94/195/3 93/196/3
f 103/370/3 105/372/3 104/369/3
f 103/370/3 106/371/3 105/372/3
f 43/358/3 37/360/3 44/357/3
f 43/358/3 38/359/3 37/360/3
f 83/110/4 97/112/4 84/109/4
f 83/110/4 98/111/4 97/112/4
f 35/158/4 89/160/4 36/157/4
f 35/158/4 90/159/4 89/160/4
f 67/178/4 1/180/4 68/177/4
f 67/178/4 2/179/4 1/180/4
f 71/290/4 13/292/4 72/289/4
f 71/290/4 14/291/4 13/292/4
f 59/202/4 17/204/4 60/201/4
f 59/202/4 18/203/4 17/204/4
f 47/302/4 21/304/4 48/301/4
f 47/302/4 22/303/4 21/304/4
f 75/298/4 109/300/4 76/297/4
f 75/298/4 110/299/4 109/300/4
f 51/294/4 113/296/4 52/293/4
f 51/294/4 114/295/4 113/296/4
f 127/405/4 120/237/4 119/238/4
f 119/238/4 25/240/4 127/405/4
f 25/240/4 119/238/4 135/406/4
f 135/406/4 26/239/4 25/240/4
f 128/407/4 80/233/4 79/234/4
f 79/234/4 53/236/4 128/407/4
f 53/236/4 79/234/4 136/408/4
f 136/408/4 54/235/4 53/236/4
f 91/206/4 5/208/4 92/205/4
f 91/206/4 6/207/4 5/208/4
f 63/214/4 33/216/4 64/213/4
f 63/214/4 34/215/4 33/216/4
f 99/222/4 9/224/4 100/221/4
f 99/222/4 10/223/4 9/224/4
f 15/350/4 65/352/4 16/349/4
f 15/350/4 66/351/4 65/352/4
f 19/354/4 69/356/4 20/353/4
f 19/354/4 70/355/4 69/356/4
f 115/342/4 117/344/4 116/341/4
f 115/342/4 118/343/4 117/344/4
f 55/346/4 49/348/4 56/345/4
f 55/346/4 50/347/4 49/348/4
f 96/5/5 81/6/5 97/8/5
f 81/6/5 84/7/5 97/8/5
f 88/13/5 29/14/5 89/16/5
f 29/14/5 36/15/5 89/16/5
f 1/44/5 4/41/5 121/42/5
f 121/42/5 65/409/5 1/44/5
f 68/43/5 1/44/5 65/409/5
f 16/411/5 122/57/5 123/58/5
f 123/58/5 69/410/5 16/411/5
f 13/60/5 16/411/5 69/410/5
f 69/410/5 72/59/5 13/60/5
f 20/412/5 124/37/5 57/38/5
f 57/38/5 60/39/5 20/412/5
f 17/40/5 20/412/5 60/39/5
f 5/48/5 8/45/5 85/46/5
f 85/46/5 88/413/5 5/48/5
f 92/47/5 5/48/5 88/413/5
f 88/413/5 89/414/5 92/47/5
f 29/415/5 32/53/5 61/54/5
f 61/54/5 64/55/5 29/415/5
f 36/416/5 29/415/5 64/55/5
f 64/55/5 33/56/5 36/416/5
f 9/52/5 12/49/5 93/50/5
f 93/50/5 96/417/5 9/52/5
f 100/51/5 9/52/5 96/417/5
f 96/417/5 97/418/5 100/51/5
f 24/89/5 125/90/5 21/92/5
f 125/90/5 48/91/5 21/92/5
f 126/77/5 73/78/5 109/80/5
f 73/78/5 76/79/5 109/80/5
f 108/65/5 41/66/5 113/68/5
f 41/66/5 52/67/5 113/68/5
f 28/69/5 45/70/5 25/72/5
f 45/70/5 127/71/5 25/72/5
f 112/73/5 77/74/5 128/76/5
f 77/74/5 80/75/5 128/76/5
f 48/422/5 125/149/5 101/150/5
f 101/150/5 104/419/5 48/422/5
f 45/421/5 48/422/5 104/419/5
f 104/419/5 117/420/5 45/421/5
f 127/152/5 45/421/5 117/420/5
f 117/420/5 120/151/5 127/152/5
f 37/425/5 40/145/5 126/146/5
f 126/146/5 109/423/5 37/425/5
f 56/426/5 37/425/5 109/423/5
f 109/423/5 112/424/5 56/426/5
f 53/148/5 56/426/5 112/424/5
f 112/424/5 128/147/5 53/148/5
f 117/164/5 104/161/5 105/162/5
f 105/162/5 108/427/5 117/164/5
f 116/163/5 117/164/5 108/427/5
f 108/427/5 113/428/5 116/163/5
f 41/429/5 44/165/5 37/166/5
f 37/166/5 56/167/5 41/429/5
f 52/430/5 41/429/5 56/167/5
f 56/167/5 49/168/5 52/430/5
f 121/225/5 122/226/5 65/228/5
f 122/226/5 16/227/5 65/228/5
f 123/229/5 124/230/5 69/232/5
f 124/230/5 20/231/5 69/232/5
f 82/1/6 95/2/6 83/4/6
f 95/2/6 98/3/6 83/4/6
f 30/9/6 87/10/6 35/12/6
f 87/10/6 90/11/6 35/12/6
f 66/431/6 129/17/6 3/18/6
f 3/18/6 2/19/6 66/431/6
f 67/20/6 66/431/6 2/19/6
f 70/433/6 130/61/6 131/62/6
f 131/62/6 15/432/6 70/433/6
f 71/64/6 70/433/6 15/432/6
f 15/432/6 14/63/6 71/64/6
f 59/28/6 58/25/6 132/26/6
f 132/26/6 19/434/6 59/28/6
f 18/27/6 59/28/6 19/434/6
f 87/435/6 86/29/6 7/30/6
f 7/30/6 6/31/6 87/435/6
f 90/436/6 87/435/6 6/31/6
f 6/31/6 91/32/6 90/436/6
f 63/36/6 62/33/6 31/34/6
f 31/34/6 30/437/6 63/36/6
f 34/35/6 63/36/6 30/437/6
f 30/437/6 35/438/6 34/35/6
f 95/439/6 94/21/6 11/22/6
f 11/22/6 10/23/6 95/439/6
f 98/440/6 95/439/6 10/23/6
f 10/23/6 99/24/6 98/440/6
f 133/101/6 23/102/6 47/104/6
f 23/102/6 22/103/6 47/104/6
f 74/97/6 134/98/6 75/100/6
f 134/98/6 110/99/6 75/100/6
f 42/93/6 107/94/6 51/96/6
f 107/94/6 114/95/6 51/96/6
f 46/85/6 27/86/6 135/88/6
f 27/86/6 26/87/6 135/88/6
f 78/81/6 111/82/6 79/84/6
f 111/82/6 136/83/6 79/84/6
f 103/443/6 102/137/6 133/138/6
f 133/138/6 47/442/6 103/443/6
f 118/444/6 103/443/6 47/442/6
f 47/442/6 46/441/6 118/444/6
f 119/140/6 118/444/6 46/441/6
f 46/441/6 135/139/6 119/140/6
f 110/447/6 134/141/6 39/142/6
f 39/142/6 38/445/6 110/447/6
f 111/448/6 110/447/6 38/445/6
f 38/445/6 55/446/6 111/448/6
f 136/144/6 111/448/6 55/446/6
f 55/446/6 54/143/6 136/144/6
f 107/449/6 106/153/6 103/154/6
f 103/154/6 118/155/6 107/449/6
f 114/450/6 107/449/6 118/155/6
f 118/155/6 115/156/6 114/450/6
f 55/176/6 38/173/6 43/174/6
f 43/174/6 42/451/6 55/176/6
f 50/175/6 55/176/6 42/451/6
f 42/451/6 51/452/6 50/175/6
f 131/209/6 129/210/6 15/212/6
f 129/210/6 66/211/6 15/212/6
f 132/217/6 130/218/6 19/220/6
f 130/218/6 70/219/6 19/220/6
