# This file was created with Minddesk Qubicle 2.0
# Get Qubicle at www.minddesk.com

mtllib land2.mtl

vn 0.0 0.0 1.0
vn 0.0 0.0 -1.0
vn -1.0 0.0 0.0
vn 1.0 0.0 0.0
vn 0.0 1.0 0.0
vn 0.0 -1.0 0.0

v 63.50000 9.50000 -0.50000
v 63.50000 -0.50000 -0.50000
v 53.50000 -0.50000 -0.50000
v 53.50000 9.50000 -0.50000
v 56.50000 9.50000 2.50000
v 56.50000 8.50000 2.50000
v 55.50000 8.50000 2.50000
v 55.50000 9.50000 2.50000
v 56.50000 9.50000 7.50000
v 56.50000 8.50000 7.50000
v 55.50000 8.50000 7.50000
v 55.50000 9.50000 7.50000
v 56.50000 10.50000 3.50000
v 56.50000 9.50000 3.50000
v 55.50000 9.50000 3.50000
v 55.50000 10.50000 3.50000
v 59.50000 9.50000 6.50000
v 59.50000 8.50000 6.50000
v 58.50000 8.50000 6.50000
v 58.50000 9.50000 6.50000
v 61.50000 10.50000 6.50000
v 61.50000 9.50000 6.50000
v 60.50000 9.50000 6.50000
v 60.50000 10.50000 6.50000
v 55.50000 8.50000 9.50000
v 55.50000 -0.50000 9.50000
v 61.50000 -0.50000 9.50000
v 61.50000 8.50000 9.50000
v 53.50000 8.50000 7.50000
v 53.50000 -0.50000 7.50000
v 54.50000 -0.50000 7.50000
v 54.50000 8.50000 7.50000
v 54.50000 8.50000 8.50000
v 54.50000 -0.50000 8.50000
v 55.50000 -0.50000 8.50000
v 55.50000 8.50000 8.50000
v 61.50000 8.50000 8.50000
v 61.50000 -0.50000 8.50000
v 62.50000 -0.50000 8.50000
v 62.50000 8.50000 8.50000
v 62.50000 8.50000 7.50000
v 62.50000 -0.50000 7.50000
v 63.50000 -0.50000 7.50000
v 63.50000 8.50000 7.50000
v 55.50000 9.50000 8.50000
v 61.50000 9.50000 8.50000
v 53.50000 9.50000 5.50000
v 53.50000 8.50000 5.50000
v 54.50000 8.50000 5.50000
v 54.50000 9.50000 5.50000
v 54.50000 9.50000 7.50000
v 55.50000 9.50000 1.50000
v 55.50000 8.50000 1.50000
v 56.50000 8.50000 1.50000
v 56.50000 9.50000 1.50000
v 55.50000 9.50000 6.50000
v 55.50000 8.50000 6.50000
v 56.50000 8.50000 6.50000
v 56.50000 9.50000 6.50000
v 55.50000 10.50000 4.50000
v 55.50000 9.50000 4.50000
v 56.50000 9.50000 4.50000
v 56.50000 10.50000 4.50000
v 58.50000 9.50000 5.50000
v 58.50000 8.50000 5.50000
v 59.50000 8.50000 5.50000
v 59.50000 9.50000 5.50000
v 60.50000 10.50000 7.50000
v 60.50000 9.50000 7.50000
v 61.50000 9.50000 7.50000
v 61.50000 10.50000 7.50000
v 61.50000 8.50000 7.50000
v 62.50000 9.50000 7.50000
v 62.50000 9.50000 5.50000
v 62.50000 8.50000 5.50000
v 63.50000 8.50000 5.50000
v 63.50000 9.50000 5.50000
v 53.50000 8.50000 -0.50000
v 63.50000 8.50000 -0.50000
v 53.50000 9.50000 1.50000
v 63.50000 9.50000 1.50000
v 53.50000 9.50000 2.50000
v 53.50000 9.50000 3.50000
v 63.50000 9.50000 3.50000
v 63.50000 9.50000 2.50000
v 53.50000 9.50000 4.50000
v 63.50000 9.50000 4.50000
v 54.50000 9.50000 6.50000
v 62.50000 9.50000 6.50000

vt 0.01563 0.34375
vt 0.01563 0.03125
vt 0.17188 0.03125
vt 0.17188 0.34375
vt 0.20313 0.31250
vt 0.20313 0.03125
vt 0.32813 0.03125
vt 0.32813 0.31250
vt 0.35938 0.31250
vt 0.35938 0.03125
vt 0.48438 0.03125
vt 0.48438 0.31250
vt 0.51563 0.31250
vt 0.51563 0.03125
vt 0.60938 0.03125
vt 0.60938 0.31250
vt 0.64063 0.31250
vt 0.64063 0.03125
vt 0.65625 0.03125
vt 0.65625 0.31250
vt 0.68750 0.31250
vt 0.68750 0.03125
vt 0.70313 0.03125
vt 0.70313 0.31250
vt 0.73438 0.31250
vt 0.73438 0.03125
vt 0.75000 0.03125
vt 0.75000 0.31250
vt 0.78125 0.31250
vt 0.78125 0.03125
vt 0.79688 0.03125
vt 0.79688 0.31250
vt 0.82813 0.31250
vt 0.82813 0.03125
vt 0.84375 0.03125
vt 0.84375 0.31250
vt 0.87500 0.31250
vt 0.87500 0.03125
vt 0.89063 0.03125
vt 0.89063 0.31250
vt 0.92188 0.31250
vt 0.92188 0.03125
vt 0.93750 0.03125
vt 0.93750 0.31250
vt 0.96875 0.31250
vt 0.96875 0.03125
vt 0.98438 0.03125
vt 0.98438 0.31250
vt 0.01563 0.65625
vt 0.01563 0.40625
vt 0.17188 0.40625
vt 0.17188 0.65625
vt 0.20313 0.46875
vt 0.20313 0.40625
vt 0.35938 0.40625
vt 0.35938 0.46875
vt 0.39063 0.46875
vt 0.39063 0.40625
vt 0.40625 0.40625
vt 0.40625 0.46875
vt 0.43750 0.46875
vt 0.43750 0.40625
vt 0.45313 0.40625
vt 0.45313 0.46875
vt 0.48438 0.43750
vt 0.48438 0.40625
vt 0.64063 0.40625
vt 0.64063 0.43750
vt 0.67188 0.43750
vt 0.67188 0.40625
vt 0.82813 0.40625
vt 0.82813 0.43750
vt 0.85938 0.43750
vt 0.85938 0.40625
vt 0.98438 0.40625
vt 0.98438 0.43750
vt 0.20313 0.56250
vt 0.20313 0.53125
vt 0.31250 0.53125
vt 0.31250 0.56250
vt 0.34375 0.56250
vt 0.34375 0.53125
vt 0.45313 0.53125
vt 0.45313 0.56250
vt 0.48438 0.56250
vt 0.48438 0.53125
vt 0.57813 0.53125
vt 0.57813 0.56250
vt 0.60938 0.56250
vt 0.60938 0.53125
vt 0.70313 0.53125
vt 0.70313 0.56250
vt 0.73438 0.56250
vt 0.73438 0.53125
vt 0.82813 0.53125
vt 0.82813 0.56250
vt 0.85938 0.56250
vt 0.85938 0.53125
vt 0.95313 0.53125
vt 0.95313 0.56250
vt 0.20313 0.65625
vt 0.20313 0.62500
vt 0.29688 0.62500
vt 0.29688 0.65625
vt 0.32813 0.65625
vt 0.32813 0.62500
vt 0.42188 0.62500
vt 0.42188 0.65625
vt 0.45313 0.65625
vt 0.45313 0.62500
vt 0.51563 0.62500
vt 0.51563 0.65625
vt 0.54688 0.65625
vt 0.54688 0.62500
vt 0.60938 0.62500
vt 0.60938 0.65625
vt 0.64063 0.65625
vt 0.64063 0.62500
vt 0.68750 0.62500
vt 0.68750 0.65625
vt 0.71875 0.65625
vt 0.71875 0.62500
vt 0.75000 0.62500
vt 0.75000 0.65625
vt 0.78125 0.65625
vt 0.78125 0.62500
vt 0.81250 0.62500
vt 0.81250 0.65625
vt 0.84375 0.65625
vt 0.84375 0.62500
vt 0.87500 0.62500
vt 0.87500 0.65625
vt 0.90625 0.65625
vt 0.90625 0.62500
vt 0.93750 0.62500
vt 0.93750 0.65625
vt 0.96875 0.65625
vt 0.96875 0.62500
vt 0.98438 0.62500
vt 0.98438 0.65625
vt 0.01563 0.75000
vt 0.01563 0.71875
vt 0.03125 0.71875
vt 0.03125 0.75000
vt 0.06250 0.75000
vt 0.06250 0.71875
vt 0.07813 0.71875
vt 0.07813 0.75000
vt 0.10938 0.75000
vt 0.10938 0.71875
vt 0.12500 0.71875
vt 0.12500 0.75000
vt 0.15625 0.75000
vt 0.15625 0.71875
vt 0.17188 0.71875
vt 0.17188 0.75000
vt 0.20313 0.75000
vt 0.20313 0.71875
vt 0.21875 0.71875
vt 0.21875 0.75000
vt 0.25000 0.75000
vt 0.25000 0.71875
vt 0.26563 0.71875
vt 0.26563 0.75000
vt 0.29688 0.75000
vt 0.29688 0.71875
vt 0.31250 0.71875
vt 0.31250 0.75000
vt 0.34375 0.75000
vt 0.34375 0.71875
vt 0.35938 0.71875
vt 0.35938 0.75000
vt 0.39063 0.75000
vt 0.39063 0.71875
vt 0.40625 0.71875
vt 0.40625 0.75000
vt 0.43750 0.75000
vt 0.43750 0.71875
vt 0.45313 0.71875
vt 0.45313 0.75000
vt 0.48438 0.75000
vt 0.48438 0.71875
vt 0.50000 0.71875
vt 0.50000 0.75000
vt 0.53125 0.75000
vt 0.53125 0.71875
vt 0.54688 0.71875
vt 0.54688 0.75000
vt 0.57813 0.75000
vt 0.57813 0.71875
vt 0.59375 0.71875
vt 0.59375 0.75000
vt 0.62500 0.75000
vt 0.62500 0.71875
vt 0.64063 0.71875
vt 0.64063 0.75000
vt 0.67188 0.75000
vt 0.67188 0.71875
vt 0.68750 0.71875
vt 0.68750 0.75000
vt 0.71875 0.75000
vt 0.71875 0.71875
vt 0.73438 0.71875
vt 0.73438 0.75000
vt 0.76563 0.75000
vt 0.76563 0.71875
vt 0.78125 0.71875
vt 0.78125 0.75000
vt 0.81250 0.75000
vt 0.81250 0.71875
vt 0.82813 0.71875
vt 0.82813 0.75000
vt 0.85938 0.75000
vt 0.85938 0.71875
vt 0.87500 0.71875
vt 0.87500 0.75000
vt 0.90625 0.75000
vt 0.90625 0.71875
vt 0.92188 0.71875
vt 0.92188 0.75000
vt 0.95313 0.75000
vt 0.95313 0.71875
vt 0.96875 0.71875
vt 0.96875 0.75000
vt 0.01563 0.84375
vt 0.01563 0.81250
vt 0.03125 0.81250
vt 0.03125 0.84375
vt 0.06250 0.84375
vt 0.06250 0.81250
vt 0.07813 0.81250
vt 0.07813 0.84375
vt 0.10938 0.84375
vt 0.10938 0.81250
vt 0.12500 0.81250
vt 0.12500 0.84375
vt 0.15625 0.84375
vt 0.15625 0.81250
vt 0.17188 0.81250
vt 0.17188 0.84375
vt 0.20313 0.84375
vt 0.20313 0.81250
vt 0.21875 0.81250
vt 0.21875 0.84375
vt 0.25000 0.84375
vt 0.25000 0.81250
vt 0.26563 0.81250
vt 0.26563 0.84375
vt 0.29688 0.84375
vt 0.29688 0.81250
vt 0.31250 0.81250
vt 0.31250 0.84375
vt 0.34375 0.84375
vt 0.34375 0.81250
vt 0.35938 0.81250
vt 0.35938 0.84375
vt 0.39063 0.84375
vt 0.39063 0.81250
vt 0.40625 0.81250
vt 0.40625 0.84375
vt 0.43750 0.84375
vt 0.43750 0.81250
vt 0.45313 0.81250
vt 0.45313 0.84375
vt 0.48438 0.84375
vt 0.48438 0.81250
vt 0.50000 0.81250
vt 0.50000 0.84375
vt 0.53125 0.84375
vt 0.53125 0.81250
vt 0.54688 0.81250
vt 0.54688 0.84375
vt 0.57813 0.84375
vt 0.57813 0.81250
vt 0.59375 0.81250
vt 0.59375 0.84375

g Matrix
usemtl land2_Material
f 1/1/2 2/2/2 3/3/2 4/4/2
f 5/173/2 6/174/2 7/175/2 8/176/2
f 9/177/2 10/178/2 11/179/2 12/180/2
f 13/165/2 14/166/2 15/167/2 16/168/2
f 17/169/2 18/170/2 19/171/2 20/172/2
f 21/189/2 22/190/2 23/191/2 24/192/2
f 25/13/1 26/14/1 27/15/1 28/16/1
f 29/41/1 30/42/1 31/43/1 32/44/1
f 33/37/1 34/38/1 35/39/1 36/40/1
f 37/33/1 38/34/1 39/35/1 40/36/1
f 41/45/1 42/46/1 43/47/1 44/48/1
f 45/89/1 36/90/1 37/91/1 46/92/1
f 47/161/1 48/162/1 49/163/1 50/164/1
f 51/141/1 32/142/1 11/143/1 12/144/1
f 52/137/1 53/138/1 54/139/1 55/140/1
f 56/149/1 57/150/1 58/151/1 59/152/1
f 60/153/1 61/154/1 62/155/1 63/156/1
f 64/157/1 65/158/1 66/159/1 67/160/1
f 68/145/1 69/146/1 70/147/1 71/148/1
f 70/197/1 72/198/1 41/199/1 73/200/1
f 74/249/1 75/250/1 76/251/1 77/252/1
f 78/5/3 3/6/3 30/7/3 29/8/3
f 32/29/3 31/30/3 34/31/3 33/32/3
f 36/17/3 35/18/3 26/19/3 25/20/3
f 4/97/3 78/98/3 48/99/3 47/100/3
f 50/125/3 49/126/3 32/127/3 51/128/3
f 12/257/3 11/258/3 36/259/3 45/260/3
f 16/269/3 15/270/3 61/271/3 60/272/3
f 55/273/3 54/274/3 6/275/3 5/276/3
f 59/261/3 58/262/3 10/263/3 9/264/3
f 67/265/3 66/266/3 18/267/3 17/268/3
f 24/237/3 23/238/3 69/239/3 68/240/3
f 44/9/4 43/10/4 2/11/4 79/12/4
f 28/25/4 27/26/4 38/27/4 37/28/4
f 40/21/4 39/22/4 42/23/4 41/24/4
f 77/85/4 76/86/4 79/87/4 1/88/4
f 73/133/4 41/134/4 75/135/4 74/136/4
f 8/205/4 7/206/4 53/207/4 52/208/4
f 12/217/4 11/218/4 57/219/4 56/220/4
f 63/229/4 62/230/4 14/231/4 13/232/4
f 20/233/4 19/234/4 65/235/4 64/236/4
f 46/221/4 37/222/4 72/223/4 70/224/4
f 71/225/4 70/226/4 22/227/4 21/228/4
f 4/53/5 80/54/5 81/55/5 1/56/5
f 48/61/5 29/62/5 32/63/5 49/64/5
f 75/57/5 41/58/5 44/59/5 76/60/5
f 82/69/5 83/70/5 84/71/5 85/72/5
f 86/65/5 47/66/5 77/67/5 87/68/5
f 36/105/5 25/106/5 28/107/5 37/108/5
f 12/101/5 45/102/5 46/103/5 70/104/5
f 55/81/5 5/82/5 85/83/5 81/84/5
f 14/77/5 62/78/5 87/79/5 84/80/5
f 50/109/5 88/110/5 20/111/5 64/112/5
f 59/113/5 9/114/5 69/115/5 23/116/5
f 67/117/5 17/118/5 89/119/5 74/120/5
f 80/129/5 82/130/5 8/131/5 52/132/5
f 83/121/5 86/122/5 61/123/5 15/124/5
f 32/201/5 33/202/5 36/203/5 11/204/5
f 88/213/5 51/214/5 12/215/5 56/216/5
f 53/209/5 7/210/5 6/211/5 54/212/5
f 57/245/5 11/246/5 10/247/5 58/248/5
f 16/241/5 60/242/5 63/243/5 13/244/5
f 65/253/5 19/254/5 18/255/5 66/256/5
f 24/185/5 68/186/5 71/187/5 21/188/5
f 72/181/5 37/182/5 40/183/5 41/184/5
f 22/193/5 70/194/5 73/195/5 89/196/5
f 30/49/6 3/50/6 2/51/6 43/52/6
f 34/73/6 31/74/6 42/75/6 39/76/6
f 26/93/6 35/94/6 38/95/6 27/96/6
