# This file was created with Minddesk Qubicle 2.0
# Get Qubicle at www.minddesk.com

mtllib Matrix.mtl

vn 0.0 0.0 1.0
vn 0.0 0.0 -1.0
vn -1.0 0.0 0.0
vn 1.0 0.0 0.0
vn 0.0 1.0 0.0
vn 0.0 -1.0 0.0

v 63.50000 11.50000 -0.50000
v 63.50000 -0.50000 -0.50000
v 53.50000 -0.50000 -0.50000
v 53.50000 11.50000 -0.50000
v 53.50000 11.50000 9.50000
v 53.50000 -0.50000 9.50000
v 63.50000 -0.50000 9.50000
v 63.50000 11.50000 9.50000

vt 0.01563 0.40625
vt 0.01563 0.03125
vt 0.17188 0.03125
vt 0.17188 0.40625
vt 0.20313 0.40625
vt 0.20313 0.03125
vt 0.35938 0.03125
vt 0.35938 0.40625
vt 0.39063 0.40625
vt 0.39063 0.03125
vt 0.54688 0.03125
vt 0.54688 0.40625
vt 0.57813 0.40625
vt 0.57813 0.03125
vt 0.73438 0.03125
vt 0.73438 0.40625
vt 0.76563 0.34375
vt 0.76563 0.03125
vt 0.92188 0.03125
vt 0.92188 0.34375
vt 0.01563 0.78125
vt 0.01563 0.46875
vt 0.17188 0.46875
vt 0.17188 0.78125

g Matrix
usemtl Matrix_Material
f 1/9/2 2/10/2 3/11/2 4/12/2
f 5/5/1 6/6/1 7/7/1 8/8/1
f 4/1/3 3/2/3 6/3/3 5/4/3
f 8/13/4 7/14/4 2/15/4 1/16/4
f 4/21/5 5/22/5 8/23/5 1/24/5
f 6/17/6 3/18/6 2/19/6 7/20/6
