# This file was created with Minddesk Qubicle 2.0
# Get Qubicle at www.minddesk.com

mtllib land1.mtl

vn 0.0 0.0 1.0
vn 0.0 0.0 -1.0
vn -1.0 0.0 0.0
vn 1.0 0.0 0.0
vn 0.0 1.0 0.0
vn 0.0 -1.0 0.0

v 61.50000 8.50000 -0.50000
v 61.50000 -0.50000 -0.50000
v 55.50000 -0.50000 -0.50000
v 55.50000 8.50000 -0.50000
v 54.50000 8.50000 1.50000
v 54.50000 -0.50000 1.50000
v 53.50000 -0.50000 1.50000
v 53.50000 8.50000 1.50000
v 55.50000 8.50000 0.50000
v 55.50000 -0.50000 0.50000
v 54.50000 -0.50000 0.50000
v 54.50000 8.50000 0.50000
v 62.50000 8.50000 0.50000
v 62.50000 -0.50000 0.50000
v 61.50000 -0.50000 0.50000
v 61.50000 8.50000 0.50000
v 63.50000 8.50000 1.50000
v 63.50000 -0.50000 1.50000
v 62.50000 -0.50000 1.50000
v 62.50000 8.50000 1.50000
v 61.50000 9.50000 0.50000
v 55.50000 9.50000 0.50000
v 61.50000 9.50000 3.50000
v 61.50000 8.50000 3.50000
v 59.50000 8.50000 3.50000
v 59.50000 9.50000 3.50000
v 55.50000 9.50000 1.50000
v 55.50000 8.50000 1.50000
v 54.50000 9.50000 1.50000
v 56.50000 9.50000 2.50000
v 56.50000 8.50000 2.50000
v 55.50000 8.50000 2.50000
v 55.50000 9.50000 2.50000
v 56.50000 9.50000 7.50000
v 56.50000 8.50000 7.50000
v 55.50000 8.50000 7.50000
v 55.50000 9.50000 7.50000
v 59.50000 9.50000 6.50000
v 59.50000 8.50000 6.50000
v 58.50000 8.50000 6.50000
v 58.50000 9.50000 6.50000
v 62.50000 9.50000 1.50000
v 61.50000 8.50000 1.50000
v 61.50000 9.50000 1.50000
v 55.50000 8.50000 9.50000
v 55.50000 -0.50000 9.50000
v 61.50000 -0.50000 9.50000
v 61.50000 8.50000 9.50000
v 53.50000 8.50000 7.50000
v 53.50000 -0.50000 7.50000
v 54.50000 -0.50000 7.50000
v 54.50000 8.50000 7.50000
v 54.50000 8.50000 8.50000
v 54.50000 -0.50000 8.50000
v 55.50000 -0.50000 8.50000
v 55.50000 8.50000 8.50000
v 61.50000 8.50000 8.50000
v 61.50000 -0.50000 8.50000
v 62.50000 -0.50000 8.50000
v 62.50000 8.50000 8.50000
v 62.50000 8.50000 7.50000
v 62.50000 -0.50000 7.50000
v 63.50000 -0.50000 7.50000
v 63.50000 8.50000 7.50000
v 55.50000 9.50000 8.50000
v 61.50000 9.50000 8.50000
v 54.50000 9.50000 7.50000
v 56.50000 8.50000 1.50000
v 56.50000 9.50000 1.50000
v 55.50000 9.50000 6.50000
v 55.50000 8.50000 6.50000
v 56.50000 8.50000 6.50000
v 56.50000 9.50000 6.50000
v 58.50000 9.50000 5.50000
v 58.50000 8.50000 5.50000
v 59.50000 8.50000 5.50000
v 59.50000 9.50000 5.50000
v 59.50000 9.50000 2.50000
v 59.50000 8.50000 2.50000
v 60.50000 8.50000 2.50000
v 60.50000 9.50000 2.50000
v 60.50000 9.50000 1.50000
v 60.50000 8.50000 1.50000
v 61.50000 9.50000 7.50000
v 61.50000 8.50000 7.50000
v 62.50000 9.50000 7.50000
v 54.50000 9.50000 3.50000
v 54.50000 9.50000 5.50000
v 62.50000 9.50000 5.50000
v 62.50000 9.50000 3.50000
v 54.50000 9.50000 2.50000
v 62.50000 9.50000 6.50000
v 54.50000 9.50000 6.50000
v 61.50000 8.50000 2.50000

vt 0.01563 0.31250
vt 0.01563 0.03125
vt 0.10938 0.03125
vt 0.10938 0.31250
vt 0.14063 0.31250
vt 0.14063 0.03125
vt 0.23438 0.03125
vt 0.23438 0.31250
vt 0.26563 0.31250
vt 0.26563 0.03125
vt 0.35938 0.03125
vt 0.35938 0.31250
vt 0.39063 0.31250
vt 0.39063 0.03125
vt 0.48438 0.03125
vt 0.48438 0.31250
vt 0.51563 0.31250
vt 0.51563 0.03125
vt 0.53125 0.03125
vt 0.53125 0.31250
vt 0.56250 0.31250
vt 0.56250 0.03125
vt 0.57813 0.03125
vt 0.57813 0.31250
vt 0.60938 0.31250
vt 0.60938 0.03125
vt 0.62500 0.03125
vt 0.62500 0.31250
vt 0.65625 0.31250
vt 0.65625 0.03125
vt 0.67188 0.03125
vt 0.67188 0.31250
vt 0.70313 0.31250
vt 0.70313 0.03125
vt 0.71875 0.03125
vt 0.71875 0.31250
vt 0.75000 0.31250
vt 0.75000 0.03125
vt 0.76563 0.03125
vt 0.76563 0.31250
vt 0.79688 0.31250
vt 0.79688 0.03125
vt 0.81250 0.03125
vt 0.81250 0.31250
vt 0.84375 0.31250
vt 0.84375 0.03125
vt 0.85938 0.03125
vt 0.85938 0.31250
vt 0.89063 0.31250
vt 0.89063 0.03125
vt 0.90625 0.03125
vt 0.90625 0.31250
vt 0.93750 0.31250
vt 0.93750 0.03125
vt 0.95313 0.03125
vt 0.95313 0.31250
vt 0.01563 0.65625
vt 0.01563 0.37500
vt 0.03125 0.37500
vt 0.03125 0.65625
vt 0.06250 0.65625
vt 0.06250 0.37500
vt 0.07813 0.37500
vt 0.07813 0.65625
vt 0.10938 0.65625
vt 0.10938 0.37500
vt 0.12500 0.37500
vt 0.12500 0.65625
vt 0.15625 0.65625
vt 0.15625 0.37500
vt 0.17188 0.37500
vt 0.17188 0.65625
vt 0.20313 0.65625
vt 0.20313 0.37500
vt 0.21875 0.37500
vt 0.21875 0.65625
vt 0.25000 0.65625
vt 0.25000 0.37500
vt 0.26563 0.37500
vt 0.26563 0.65625
vt 0.29688 0.56250
vt 0.29688 0.37500
vt 0.45313 0.37500
vt 0.45313 0.56250
vt 0.48438 0.56250
vt 0.48438 0.37500
vt 0.50000 0.37500
vt 0.50000 0.56250
vt 0.53125 0.56250
vt 0.53125 0.37500
vt 0.54688 0.37500
vt 0.54688 0.56250
vt 0.57813 0.43750
vt 0.57813 0.37500
vt 0.70313 0.37500
vt 0.70313 0.43750
vt 0.73438 0.43750
vt 0.73438 0.37500
vt 0.75000 0.37500
vt 0.75000 0.43750
vt 0.78125 0.40625
vt 0.78125 0.37500
vt 0.90625 0.37500
vt 0.90625 0.40625
vt 0.57813 0.53125
vt 0.57813 0.50000
vt 0.70313 0.50000
vt 0.70313 0.53125
vt 0.73438 0.53125
vt 0.73438 0.50000
vt 0.82813 0.50000
vt 0.82813 0.53125
vt 0.85938 0.53125
vt 0.85938 0.50000
vt 0.95313 0.50000
vt 0.95313 0.53125
vt 0.29688 0.65625
vt 0.29688 0.62500
vt 0.39063 0.62500
vt 0.39063 0.65625
vt 0.42188 0.65625
vt 0.42188 0.62500
vt 0.51563 0.62500
vt 0.51563 0.65625
vt 0.54688 0.65625
vt 0.54688 0.62500
vt 0.64063 0.62500
vt 0.64063 0.65625
vt 0.67188 0.65625
vt 0.67188 0.62500
vt 0.76563 0.62500
vt 0.76563 0.65625
vt 0.79688 0.65625
vt 0.79688 0.62500
vt 0.89063 0.62500
vt 0.89063 0.65625
vt 0.01563 0.75000
vt 0.01563 0.71875
vt 0.10938 0.71875
vt 0.10938 0.75000
vt 0.14063 0.75000
vt 0.14063 0.71875
vt 0.23438 0.71875
vt 0.23438 0.75000
vt 0.26563 0.75000
vt 0.26563 0.71875
vt 0.35938 0.71875
vt 0.35938 0.75000
vt 0.39063 0.75000
vt 0.39063 0.71875
vt 0.48438 0.71875
vt 0.48438 0.75000
vt 0.51563 0.75000
vt 0.51563 0.71875
vt 0.59375 0.71875
vt 0.59375 0.75000
vt 0.92188 0.65625
vt 0.92188 0.62500
vt 0.98438 0.62500
vt 0.98438 0.65625
vt 0.62500 0.75000
vt 0.62500 0.71875
vt 0.68750 0.71875
vt 0.68750 0.75000
vt 0.93750 0.40625
vt 0.93750 0.37500
vt 0.98438 0.37500
vt 0.98438 0.40625
vt 0.71875 0.75000
vt 0.71875 0.71875
vt 0.75000 0.71875
vt 0.75000 0.75000
vt 0.78125 0.75000
vt 0.78125 0.71875
vt 0.81250 0.71875
vt 0.81250 0.75000
vt 0.84375 0.75000
vt 0.84375 0.71875
vt 0.87500 0.71875
vt 0.87500 0.75000
vt 0.90625 0.75000
vt 0.90625 0.71875
vt 0.92188 0.71875
vt 0.92188 0.75000
vt 0.95313 0.75000
vt 0.95313 0.71875
vt 0.96875 0.71875
vt 0.96875 0.75000
vt 0.01563 0.84375
vt 0.01563 0.81250
vt 0.03125 0.81250
vt 0.03125 0.84375
vt 0.06250 0.84375
vt 0.06250 0.81250
vt 0.07813 0.81250
vt 0.07813 0.84375
vt 0.10938 0.84375
vt 0.10938 0.81250
vt 0.12500 0.81250
vt 0.12500 0.84375
vt 0.15625 0.84375
vt 0.15625 0.81250
vt 0.17188 0.81250
vt 0.17188 0.84375
vt 0.20313 0.84375
vt 0.20313 0.81250
vt 0.21875 0.81250
vt 0.21875 0.84375
vt 0.25000 0.84375
vt 0.25000 0.81250
vt 0.26563 0.81250
vt 0.26563 0.84375
vt 0.29688 0.84375
vt 0.29688 0.81250
vt 0.31250 0.81250
vt 0.31250 0.84375
vt 0.34375 0.84375
vt 0.34375 0.81250
vt 0.35938 0.81250
vt 0.35938 0.84375
vt 0.39063 0.84375
vt 0.39063 0.81250
vt 0.40625 0.81250
vt 0.40625 0.84375
vt 0.43750 0.84375
vt 0.43750 0.81250
vt 0.45313 0.81250
vt 0.45313 0.84375
vt 0.48438 0.84375
vt 0.48438 0.81250
vt 0.50000 0.81250
vt 0.50000 0.84375
vt 0.53125 0.84375
vt 0.53125 0.81250
vt 0.54688 0.81250
vt 0.54688 0.84375
vt 0.57813 0.84375
vt 0.57813 0.81250
vt 0.59375 0.81250
vt 0.59375 0.84375
vt 0.62500 0.84375
vt 0.62500 0.81250
vt 0.64063 0.81250
vt 0.64063 0.84375
vt 0.67188 0.84375
vt 0.67188 0.81250
vt 0.68750 0.81250
vt 0.68750 0.84375
vt 0.71875 0.84375
vt 0.71875 0.81250
vt 0.73438 0.81250
vt 0.73438 0.84375
vt 0.76563 0.84375
vt 0.76563 0.81250
vt 0.78125 0.81250
vt 0.78125 0.84375
vt 0.81250 0.84375
vt 0.81250 0.81250
vt 0.82813 0.81250
vt 0.82813 0.84375
vt 0.85938 0.84375
vt 0.85938 0.81250
vt 0.87500 0.81250
vt 0.87500 0.84375
vt 0.90625 0.84375
vt 0.90625 0.81250
vt 0.92188 0.81250
vt 0.92188 0.84375
vt 0.95313 0.84375
vt 0.95313 0.81250
vt 0.96875 0.81250
vt 0.96875 0.84375
vt 0.01563 0.93750
vt 0.01563 0.90625
vt 0.03125 0.90625
vt 0.03125 0.93750
vt 0.06250 0.93750
vt 0.06250 0.90625
vt 0.07813 0.90625
vt 0.07813 0.93750
vt 0.10938 0.93750
vt 0.10938 0.90625
vt 0.12500 0.90625
vt 0.12500 0.93750
vt 0.15625 0.93750
vt 0.15625 0.90625
vt 0.17188 0.90625
vt 0.17188 0.93750
vt 0.20313 0.93750
vt 0.20313 0.90625
vt 0.21875 0.90625
vt 0.21875 0.93750
vt 0.25000 0.93750
vt 0.25000 0.90625
vt 0.26563 0.90625
vt 0.26563 0.93750
vt 0.29688 0.93750
vt 0.29688 0.90625
vt 0.31250 0.90625
vt 0.31250 0.93750
vt 0.34375 0.93750
vt 0.34375 0.90625
vt 0.35938 0.90625
vt 0.35938 0.93750
vt 0.39063 0.93750
vt 0.39063 0.90625
vt 0.40625 0.90625
vt 0.40625 0.93750
vt 0.43750 0.93750
vt 0.43750 0.90625
vt 0.45313 0.90625
vt 0.45313 0.93750
vt 0.48438 0.93750
vt 0.48438 0.90625
vt 0.50000 0.90625
vt 0.50000 0.93750

g Matrix
usemtl land1_Material
f 1/13/2 2/14/2 3/15/2 4/16/2
f 5/69/2 6/70/2 7/71/2 8/72/2
f 9/49/2 10/50/2 11/51/2 12/52/2
f 13/57/2 14/58/2 15/59/2 16/60/2
f 17/61/2 18/62/2 19/63/2 20/64/2
f 21/117/2 16/118/2 9/119/2 22/120/2
f 23/169/2 24/170/2 25/171/2 26/172/2
f 27/213/2 28/214/2 5/215/2 29/216/2
f 30/209/2 31/210/2 32/211/2 33/212/2
f 34/205/2 35/206/2 36/207/2 37/208/2
f 38/217/2 39/218/2 40/219/2 41/220/2
f 42/229/2 20/230/2 43/231/2 44/232/2
f 45/1/1 46/2/1 47/3/1 48/4/1
f 49/53/1 50/54/1 51/55/1 52/56/1
f 53/73/1 54/74/1 55/75/1 56/76/1
f 57/77/1 58/78/1 59/79/1 60/80/1
f 61/65/1 62/66/1 63/67/1 64/68/1
f 65/121/1 56/122/1 57/123/1 66/124/1
f 67/193/1 52/194/1 36/195/1 37/196/1
f 27/197/1 28/198/1 68/199/1 69/200/1
f 70/189/1 71/190/1 72/191/1 73/192/1
f 74/289/1 75/290/1 76/291/1 77/292/1
f 78/293/1 79/294/1 80/295/1 81/296/1
f 82/285/1 83/286/1 43/287/1 44/288/1
f 84/277/1 85/278/1 61/279/1 86/280/1
f 8/5/3 7/6/3 50/7/3 49/8/3
f 12/45/3 11/46/3 6/47/3 5/48/3
f 52/25/3 51/26/3 54/27/3 53/28/3
f 4/21/3 3/22/3 10/23/3 9/24/3
f 56/17/3 55/18/3 46/19/3 45/20/3
f 29/109/3 5/110/3 52/111/3 67/112/3
f 44/173/3 43/174/3 24/175/3 23/176/3
f 22/301/3 9/302/3 28/303/3 27/304/3
f 37/273/3 36/274/3 56/275/3 65/276/3
f 69/245/3 68/246/3 31/247/3 30/248/3
f 73/249/3 72/250/3 35/251/3 34/252/3
f 77/241/3 76/242/3 39/243/3 38/244/3
f 64/9/4 63/10/4 18/11/4 17/12/4
f 16/41/4 15/42/4 2/43/4 1/44/4
f 48/37/4 47/38/4 58/39/4 57/40/4
f 20/33/4 19/34/4 14/35/4 13/36/4
f 60/29/4 59/30/4 62/31/4 61/32/4
f 86/125/4 61/126/4 20/127/4 42/128/4
f 33/233/4 32/234/4 28/235/4 27/236/4
f 37/237/4 36/238/4 71/239/4 70/240/4
f 41/265/4 40/266/4 75/267/4 74/268/4
f 26/269/4 25/270/4 79/271/4 78/272/4
f 81/261/4 80/262/4 83/263/4 82/264/4
f 44/253/4 43/254/4 16/255/4 21/256/4
f 66/257/4 57/258/4 85/259/4 84/260/4
f 8/89/5 49/90/5 52/91/5 5/92/5
f 20/85/5 61/86/5 64/87/5 17/88/5
f 87/93/5 88/94/5 89/95/5 90/96/5
f 44/97/5 23/98/5 90/99/5 42/100/5
f 91/153/5 87/154/5 26/155/5 78/156/5
f 4/141/5 9/142/5 16/143/5 1/144/5
f 56/129/5 45/130/5 48/131/5 57/132/5
f 22/133/5 27/134/5 44/135/5 21/136/5
f 37/137/5 65/138/5 66/139/5 84/140/5
f 73/113/5 34/114/5 86/115/5 92/116/5
f 88/161/5 93/162/5 41/163/5 74/164/5
f 69/157/5 30/158/5 81/159/5 82/160/5
f 77/165/5 38/166/5 92/167/5 89/168/5
f 79/177/5 25/178/5 24/179/5 94/180/5
f 12/297/5 5/298/5 28/299/5 9/300/5
f 52/305/5 53/306/5 56/307/5 36/308/5
f 29/313/5 91/314/5 33/315/5 27/316/5
f 93/309/5 67/310/5 37/311/5 70/312/5
f 28/281/5 32/282/5 31/283/5 68/284/5
f 71/201/5 36/202/5 35/203/5 72/204/5
f 75/181/5 40/182/5 39/183/5 76/184/5
f 83/185/5 80/186/5 94/187/5 43/188/5
f 16/221/5 43/222/5 20/223/5 13/224/5
f 85/225/5 57/226/5 60/227/5 61/228/5
f 50/81/6 7/82/6 18/83/6 63/84/6
f 6/101/6 11/102/6 14/103/6 19/104/6
f 54/105/6 51/106/6 62/107/6 59/108/6
f 10/145/6 3/146/6 2/147/6 15/148/6
f 46/149/6 55/150/6 58/151/6 47/152/6
