# This file was created with Minddesk Qubicle 2.0
# Get Qubicle at www.minddesk.com

mtllib chatBox.mtl

vn 0.0 0.0 1.0
vn 0.0 0.0 -1.0
vn -1.0 0.0 0.0
vn 1.0 0.0 0.0
vn 0.0 1.0 0.0
vn 0.0 -1.0 0.0

v -0.50000 12.50000 -28.50000
v -0.50000 -0.50000 -28.50000
v -1.50000 -0.50000 -28.50000
v -1.50000 12.50000 -28.50000
v -0.50000 13.50000 -27.50000
v -0.50000 12.50000 -27.50000
v -1.50000 12.50000 -27.50000
v -1.50000 13.50000 -27.50000
v -0.50000 14.50000 -26.50000
v -0.50000 13.50000 -26.50000
v -1.50000 13.50000 -26.50000
v -1.50000 14.50000 -26.50000
v -1.50000 12.50000 27.50000
v -1.50000 -0.50000 27.50000
v -0.50000 -0.50000 27.50000
v -0.50000 12.50000 27.50000
v -1.50000 13.50000 26.50000
v -1.50000 12.50000 26.50000
v -0.50000 12.50000 26.50000
v -0.50000 13.50000 26.50000
v -1.50000 14.50000 25.50000
v -1.50000 13.50000 25.50000
v -0.50000 13.50000 25.50000
v -0.50000 14.50000 25.50000

vt 0.01563 0.89063
vt 0.01563 0.01563
vt 0.03125 0.01563
vt 0.03125 0.89063
vt 0.06250 0.82813
vt 0.06250 0.01563
vt 0.07813 0.01563
vt 0.07813 0.82813
vt 0.10938 0.21875
vt 0.10938 0.01563
vt 0.98438 0.01563
vt 0.98438 0.21875
vt 0.10938 0.45313
vt 0.10938 0.25000
vt 0.98438 0.25000
vt 0.98438 0.45313
vt 0.10938 0.68750
vt 0.10938 0.48438
vt 0.12500 0.48438
vt 0.12500 0.68750
vt 0.15625 0.68750
vt 0.15625 0.48438
vt 0.17188 0.48438
vt 0.17188 0.68750
vt 0.10938 0.73438
vt 0.10938 0.71875
vt 0.95313 0.71875
vt 0.95313 0.73438
vt 0.10938 0.78125
vt 0.10938 0.76563
vt 0.95313 0.76563
vt 0.95313 0.78125
vt 0.10938 0.82813
vt 0.10938 0.81250
vt 0.92188 0.81250
vt 0.92188 0.82813
vt 0.06250 0.87500
vt 0.06250 0.85938
vt 0.87500 0.85938
vt 0.87500 0.87500
vt 0.20313 0.50000
vt 0.20313 0.48438
vt 0.21875 0.48438
vt 0.21875 0.50000
vt 0.25000 0.50000
vt 0.25000 0.48438
vt 0.26563 0.48438
vt 0.26563 0.50000
vt 0.29688 0.50000
vt 0.29688 0.48438
vt 0.31250 0.48438
vt 0.31250 0.50000
vt 0.34375 0.50000
vt 0.34375 0.48438
vt 0.35938 0.48438
vt 0.35938 0.50000
vt 0.39063 0.50000
vt 0.39063 0.48438
vt 0.40625 0.48438
vt 0.40625 0.50000
vt 0.43750 0.50000
vt 0.43750 0.48438
vt 0.45313 0.48438
vt 0.45313 0.50000
vt 0.48438 0.50000
vt 0.48438 0.48438
vt 0.50000 0.48438
vt 0.50000 0.50000
vt 0.53125 0.50000
vt 0.53125 0.48438
vt 0.54688 0.48438
vt 0.54688 0.50000
vt 0.12500 0.45313
vt 0.96875 0.45313
vt 0.12500 0.78125
vt 0.93750 0.78125
vt 0.96875 0.21875
vt 0.12500 0.21875
vt 0.93750 0.73438
vt 0.12500 0.73438

g Matrix_1
usemtl chatBox_Material
f 2/18/2 4/20/2 1/17/2
f 2/18/2 3/19/2 4/20/2
f 6/54/2 8/56/2 5/53/2
f 6/54/2 7/55/2 8/56/2
f 10/42/2 12/44/2 9/41/2
f 10/42/2 11/43/2 12/44/2
f 14/22/1 16/24/1 13/21/1
f 14/22/1 15/23/1 16/24/1
f 18/66/1 20/68/1 17/65/1
f 18/66/1 19/67/1 20/68/1
f 22/70/1 24/72/1 21/69/1
f 22/70/1 23/71/1 24/72/1
f 7/73/3 4/13/3 3/14/3
f 3/14/3 18/74/3 7/73/3
f 18/74/3 3/14/3 14/15/3
f 14/15/3 13/16/3 18/74/3
f 11/75/3 8/29/3 7/30/3
f 7/30/3 22/76/3 11/75/3
f 22/76/3 7/30/3 18/31/3
f 18/31/3 17/32/3 22/76/3
f 11/34/3 21/36/3 12/33/3
f 11/34/3 22/35/3 21/36/3
f 19/78/4 16/9/4 15/10/4
f 15/10/4 6/77/4 19/78/4
f 6/77/4 15/10/4 2/11/4
f 2/11/4 1/12/4 6/77/4
f 23/80/4 20/25/4 19/26/4
f 19/26/4 10/79/4 23/80/4
f 10/79/4 19/26/4 6/27/4
f 6/27/4 5/28/4 10/79/4
f 23/38/4 9/40/4 24/37/4
f 23/38/4 10/39/4 9/40/4
f 12/5/5 21/6/5 9/8/5
f 21/6/5 24/7/5 9/8/5
f 4/61/5 7/62/5 1/64/5
f 7/62/5 6/63/5 1/64/5
f 18/57/5 13/58/5 19/60/5
f 13/58/5 16/59/5 19/60/5
f 8/45/5 11/46/5 5/48/5
f 11/46/5 10/47/5 5/48/5
f 22/49/5 17/50/5 23/52/5
f 17/50/5 20/51/5 23/52/5
f 14/1/6 3/2/6 15/4/6
f 3/2/6 2/3/6 15/4/6
