# This file was created with Minddesk Qubicle 2.0
# Get Qubicle at www.minddesk.com

mtllib NewModel.mtl

vn 0.0 0.0 1.0
vn 0.0 0.0 -1.0
vn -1.0 0.0 0.0
vn 1.0 0.0 0.0
vn 0.0 1.0 0.0
vn 0.0 -1.0 0.0

v 2.50000 3.50000 -0.50000
v 2.50000 1.50000 -0.50000
v 0.50000 1.50000 -0.50000
v 0.50000 3.50000 -0.50000
v 2.50000 6.50000 -0.50000
v 2.50000 4.50000 -0.50000
v 0.50000 4.50000 -0.50000
v 0.50000 6.50000 -0.50000
v 2.50000 0.50000 -0.50000
v -3.50000 0.50000 -0.50000
v -3.50000 1.50000 -0.50000
v 2.50000 7.50000 -0.50000
v -3.50000 6.50000 -0.50000
v -3.50000 7.50000 -0.50000
v 1.50000 0.50000 -0.50000
v 1.50000 -0.50000 -0.50000
v -2.50000 -0.50000 -0.50000
v -2.50000 0.50000 -0.50000
v 1.50000 8.50000 -0.50000
v 1.50000 7.50000 -0.50000
v -2.50000 7.50000 -0.50000
v -2.50000 8.50000 -0.50000
v -1.50000 3.50000 -0.50000
v -1.50000 4.50000 -0.50000
v -1.50000 2.50000 -0.50000
v -1.50000 1.50000 -0.50000
v -3.50000 2.50000 -0.50000
v -1.50000 6.50000 -0.50000
v -1.50000 5.50000 -0.50000
v -3.50000 5.50000 -0.50000
v 0.50000 3.50000 0.50000
v 0.50000 1.50000 0.50000
v 2.50000 1.50000 0.50000
v 2.50000 3.50000 0.50000
v 0.50000 6.50000 0.50000
v 0.50000 4.50000 0.50000
v 2.50000 4.50000 0.50000
v 2.50000 6.50000 0.50000
v -3.50000 1.50000 0.50000
v -3.50000 0.50000 0.50000
v 2.50000 0.50000 0.50000
v -3.50000 7.50000 0.50000
v -3.50000 6.50000 0.50000
v 2.50000 7.50000 0.50000
v -2.50000 0.50000 0.50000
v -2.50000 -0.50000 0.50000
v 1.50000 -0.50000 0.50000
v 1.50000 0.50000 0.50000
v -2.50000 8.50000 0.50000
v -2.50000 7.50000 0.50000
v 1.50000 7.50000 0.50000
v 1.50000 8.50000 0.50000
v -1.50000 4.50000 0.50000
v -1.50000 3.50000 0.50000
v -3.50000 2.50000 0.50000
v -1.50000 1.50000 0.50000
v -1.50000 2.50000 0.50000
v -3.50000 5.50000 0.50000
v -1.50000 5.50000 0.50000
v -1.50000 6.50000 0.50000

vt 0.03125 0.25000
vt 0.03125 0.03125
vt 0.06250 0.03125
vt 0.06250 0.25000
vt 0.12500 0.09375
vt 0.12500 0.03125
vt 0.18750 0.03125
vt 0.18750 0.09375
vt 0.25000 0.09375
vt 0.25000 0.03125
vt 0.31250 0.03125
vt 0.31250 0.09375
vt 0.37500 0.09375
vt 0.37500 0.03125
vt 0.43750 0.03125
vt 0.43750 0.09375
vt 0.50000 0.09375
vt 0.50000 0.03125
vt 0.56250 0.03125
vt 0.56250 0.09375
vt 0.62500 0.09375
vt 0.62500 0.03125
vt 0.65625 0.03125
vt 0.65625 0.09375
vt 0.71875 0.09375
vt 0.71875 0.03125
vt 0.75000 0.03125
vt 0.75000 0.09375
vt 0.81250 0.09375
vt 0.81250 0.03125
vt 0.84375 0.03125
vt 0.84375 0.09375
vt 0.90625 0.09375
vt 0.90625 0.03125
vt 0.93750 0.03125
vt 0.93750 0.09375
vt 0.12500 0.18750
vt 0.12500 0.15625
vt 0.31250 0.15625
vt 0.31250 0.18750
vt 0.37500 0.18750
vt 0.37500 0.15625
vt 0.56250 0.15625
vt 0.56250 0.18750
vt 0.62500 0.18750
vt 0.62500 0.15625
vt 0.81250 0.15625
vt 0.81250 0.18750
vt 0.03125 0.34375
vt 0.03125 0.31250
vt 0.21875 0.31250
vt 0.21875 0.34375
vt 0.28125 0.34375
vt 0.28125 0.31250
vt 0.40625 0.31250
vt 0.40625 0.34375
vt 0.46875 0.34375
vt 0.46875 0.31250
vt 0.59375 0.31250
vt 0.59375 0.34375
vt 0.65625 0.34375
vt 0.65625 0.31250
vt 0.78125 0.31250
vt 0.78125 0.34375
vt 0.84375 0.34375
vt 0.84375 0.31250
vt 0.96875 0.31250
vt 0.96875 0.34375
vt 0.03125 0.43750
vt 0.03125 0.40625
vt 0.15625 0.40625
vt 0.15625 0.43750
vt 0.21875 0.43750
vt 0.21875 0.40625
vt 0.34375 0.40625
vt 0.34375 0.43750
vt 0.40625 0.43750
vt 0.40625 0.40625
vt 0.53125 0.40625
vt 0.53125 0.43750
vt 0.59375 0.43750
vt 0.59375 0.40625
vt 0.71875 0.40625
vt 0.71875 0.43750
vt 0.87500 0.18750
vt 0.87500 0.15625
vt 0.93750 0.15625
vt 0.93750 0.18750
vt 0.78125 0.43750
vt 0.78125 0.40625
vt 0.84375 0.40625
vt 0.84375 0.43750
vt 0.90625 0.43750
vt 0.90625 0.40625
vt 0.96875 0.40625
vt 0.96875 0.43750
vt 0.03125 0.53125
vt 0.03125 0.50000
vt 0.09375 0.50000
vt 0.09375 0.53125
vt 0.15625 0.53125
vt 0.15625 0.50000
vt 0.21875 0.50000
vt 0.21875 0.53125
vt 0.28125 0.53125
vt 0.28125 0.50000
vt 0.34375 0.50000
vt 0.34375 0.53125
vt 0.40625 0.53125
vt 0.40625 0.50000
vt 0.46875 0.50000
vt 0.46875 0.53125
vt 0.53125 0.53125
vt 0.53125 0.50000
vt 0.59375 0.50000
vt 0.59375 0.53125
vt 0.65625 0.53125
vt 0.65625 0.50000
vt 0.71875 0.50000
vt 0.71875 0.53125
vt 0.78125 0.53125
vt 0.78125 0.50000
vt 0.84375 0.50000
vt 0.84375 0.53125
vt 0.90625 0.53125
vt 0.90625 0.50000
vt 0.93750 0.50000
vt 0.93750 0.53125
vt 0.03125 0.62500
vt 0.03125 0.59375
vt 0.06250 0.59375
vt 0.06250 0.62500
vt 0.12500 0.62500
vt 0.12500 0.59375
vt 0.15625 0.59375
vt 0.15625 0.62500
vt 0.21875 0.62500
vt 0.21875 0.59375
vt 0.25000 0.59375
vt 0.25000 0.62500
vt 0.31250 0.62500
vt 0.31250 0.59375
vt 0.34375 0.59375
vt 0.34375 0.62500
vt 0.40625 0.62500
vt 0.40625 0.59375
vt 0.43750 0.59375
vt 0.43750 0.62500
vt 0.50000 0.62500
vt 0.50000 0.59375
vt 0.53125 0.59375
vt 0.53125 0.62500
vt 0.59375 0.62500
vt 0.59375 0.59375
vt 0.62500 0.59375
vt 0.62500 0.62500
vt 0.68750 0.62500
vt 0.68750 0.59375
vt 0.71875 0.59375
vt 0.71875 0.62500
vt 0.78125 0.62500
vt 0.78125 0.59375
vt 0.81250 0.59375
vt 0.81250 0.62500
vt 0.87500 0.62500
vt 0.87500 0.59375
vt 0.90625 0.59375
vt 0.90625 0.62500
vt 0.68750 0.18750
vt 0.75000 0.18750
vt 0.65625 0.15625
vt 0.78125 0.15625
vt 0.06250 0.34375
vt 0.18750 0.34375
vt 0.09375 0.31250
vt 0.15625 0.31250
vt 0.65625 0.43750
vt 0.65625 0.40625
vt 0.50000 0.18750
vt 0.43750 0.18750
vt 0.40625 0.15625
vt 0.53125 0.15625
vt 0.15625 0.18750
vt 0.28125 0.18750
vt 0.25000 0.15625
vt 0.18750 0.15625
vt 0.46875 0.43750
vt 0.46875 0.40625
vt 0.84375 0.06250
vt 0.81250 0.06250
vt 0.93750 0.06250
vt 0.90625 0.06250
vt 0.06250 0.12500
vt 0.06250 0.06250
vt 0.06250 0.21875
vt 0.06250 0.15625
vt 0.03125 0.06250
vt 0.03125 0.12500
vt 0.03125 0.15625
vt 0.03125 0.21875

g Matrix_1
usemtl NewModel_Material
f 2/14/2 4/16/2 1/13/2
f 2/14/2 3/15/2 4/16/2
f 6/18/2 8/20/2 5/17/2
f 6/18/2 7/19/2 8/20/2
f 3/169/2 2/45/2 9/46/2
f 9/46/2 26/170/2 3/169/2
f 26/170/2 9/46/2 15/171/2
f 15/171/2 11/48/2 26/170/2
f 11/48/2 15/171/2 18/172/2
f 18/172/2 10/47/2 11/48/2
f 20/173/2 12/49/2 5/50/2
f 5/50/2 21/174/2 20/173/2
f 21/174/2 5/50/2 8/175/2
f 8/175/2 14/52/2 21/174/2
f 14/52/2 8/175/2 28/176/2
f 28/176/2 13/51/2 14/52/2
f 16/66/2 18/68/2 15/65/2
f 16/66/2 17/67/2 18/68/2
f 20/74/2 22/76/2 19/73/2
f 20/74/2 21/75/2 22/76/2
f 7/177/2 6/81/2 1/82/2
f 1/82/2 24/84/2 7/177/2
f 24/84/2 1/82/2 4/178/2
f 4/178/2 23/83/2 24/84/2
f 26/90/2 27/92/2 25/89/2
f 26/90/2 11/91/2 27/92/2
f 29/86/2 13/88/2 28/85/2
f 29/86/2 30/87/2 13/88/2
f 32/10/1 34/12/1 31/9/1
f 32/10/1 33/11/1 34/12/1
f 36/6/1 38/8/1 35/5/1
f 36/6/1 37/7/1 38/8/1
f 56/180/1 39/41/1 40/42/1
f 40/42/1 32/179/1 56/180/1
f 32/179/1 40/42/1 45/181/1
f 45/181/1 33/44/1 32/179/1
f 33/44/1 45/181/1 48/182/1
f 48/182/1 41/43/1 33/44/1
f 50/183/1 42/37/1 43/38/1
f 43/38/1 51/184/1 50/183/1
f 51/184/1 43/38/1 60/186/1
f 60/186/1 44/40/1 51/184/1
f 44/40/1 60/186/1 35/185/1
f 35/185/1 38/39/1 44/40/1
f 46/62/1 48/64/1 45/61/1
f 46/62/1 47/63/1 48/64/1
f 50/54/1 52/56/1 49/53/1
f 50/54/1 51/55/1 52/56/1
f 36/187/1 53/77/1 54/78/1
f 54/78/1 37/80/1 36/187/1
f 37/80/1 54/78/1 31/188/1
f 31/188/1 34/79/1 37/80/1
f 39/102/1 57/104/1 55/101/1
f 39/102/1 56/103/1 57/104/1
f 58/122/1 60/124/1 43/121/1
f 58/122/1 59/123/1 60/124/1
f 55/32/3 27/29/3 11/190/3
f 11/190/3 39/189/3 55/32/3
f 39/189/3 11/190/3 10/30/3
f 10/30/3 40/31/3 39/189/3
f 42/36/3 14/33/3 13/192/3
f 13/192/3 43/191/3 42/36/3
f 43/191/3 13/192/3 30/34/3
f 30/34/3 58/35/3 43/191/3
f 3/26/3 31/28/3 4/25/3
f 3/26/3 32/27/3 31/28/3
f 7/22/3 35/24/3 8/21/3
f 7/22/3 36/23/3 35/24/3
f 17/146/3 45/148/3 18/145/3
f 17/146/3 46/147/3 45/148/3
f 21/166/3 49/168/3 22/165/3
f 21/166/3 50/167/3 49/168/3
f 23/162/3 53/164/3 24/161/3
f 23/162/3 54/163/3 53/164/3
f 12/4/4 44/1/4 38/200/4
f 38/200/4 5/195/4 12/4/4
f 5/195/4 38/200/4 37/199/4
f 37/199/4 6/196/4 5/195/4
f 6/196/4 37/199/4 34/198/4
f 34/198/4 1/193/4 6/196/4
f 1/193/4 34/198/4 33/197/4
f 33/197/4 2/194/4 1/193/4
f 2/194/4 33/197/4 41/2/4
f 41/2/4 9/3/4 2/194/4
f 56/158/4 25/160/4 57/157/4
f 56/158/4 26/159/4 25/160/4
f 59/142/4 28/144/4 60/141/4
f 59/142/4 29/143/4 28/144/4
f 47/126/4 15/128/4 48/125/4
f 47/126/4 16/127/4 15/128/4
f 51/130/4 19/132/4 52/129/4
f 51/130/4 20/131/4 19/132/4
f 22/69/5 49/70/5 19/72/5
f 49/70/5 52/71/5 19/72/5
f 27/109/5 55/110/5 25/112/5
f 55/110/5 57/111/5 25/112/5
f 26/105/5 56/106/5 3/108/5
f 56/106/5 32/107/5 3/108/5
f 24/113/5 53/114/5 7/116/5
f 53/114/5 36/115/5 7/116/5
f 14/149/5 42/150/5 21/152/5
f 42/150/5 50/151/5 21/152/5
f 20/153/5 51/154/5 12/156/5
f 51/154/5 44/155/5 12/156/5
f 46/57/6 17/58/6 47/60/6
f 17/58/6 16/59/6 47/60/6
f 58/117/6 30/118/6 59/120/6
f 30/118/6 29/119/6 59/120/6
f 54/93/6 23/94/6 31/96/6
f 23/94/6 4/95/6 31/96/6
f 60/97/6 28/98/6 35/100/6
f 28/98/6 8/99/6 35/100/6
f 40/133/6 10/134/6 45/136/6
f 10/134/6 18/135/6 45/136/6
f 48/137/6 15/138/6 41/140/6
f 15/138/6 9/139/6 41/140/6
